<svg xmlns="http://www.w3.org/2000/svg" width="1068.361" height="440.204" viewBox="0 0 1068.361 440.204">
  <g id="Grupo_904138" data-name="Grupo 904138" transform="translate(-266.639 -443.754)">
    <g id="Trazado_632707" data-name="Trazado 632707" transform="translate(1189.464 570.344) rotate(180)" fill="#707070">
      <path d="M 15.3069896697998 13.12977981567383 L 0.8783723711967468 13.12977981567383 L 8.092680931091309 0.9793622493743896 L 15.3069896697998 13.12977981567383 Z" stroke="none"/>
      <path d="M 8.092680931091309 1.958707809448242 L 1.756733894348145 12.62977981567383 L 14.42862796783447 12.62977981567383 L 8.092680931091309 1.958707809448242 M 8.092680931091309 -9.5367431640625e-07 L 16.18536186218262 13.62977981567383 L 0 13.62977981567383 L 8.092680931091309 -9.5367431640625e-07 Z" stroke="none" fill="#707070"/>
    </g>
    <path id="Trazado_183774" data-name="Trazado 183774" d="M17.709,0H0V672.965H15.563" transform="translate(1181.371 539.006) rotate(90)" fill="none" stroke="#707070" stroke-width="1"/>
    <g id="Trazado_632708" data-name="Trazado 632708" transform="translate(876.051 568.82) rotate(180)" fill="#707070">
      <path d="M 15.3069896697998 13.12977981567383 L 0.8783723711967468 13.12977981567383 L 8.092680931091309 0.9793622493743896 L 15.3069896697998 13.12977981567383 Z" stroke="none"/>
      <path d="M 8.092680931091309 1.958707809448242 L 1.756733894348145 12.62977981567383 L 14.42862796783447 12.62977981567383 L 8.092680931091309 1.958707809448242 M 8.092680931091309 -9.5367431640625e-07 L 16.18536186218262 13.62977981567383 L 0 13.62977981567383 L 8.092680931091309 -9.5367431640625e-07 Z" stroke="none" fill="#707070"/>
    </g>
    <g id="Trazado_632712" data-name="Trazado 632712" transform="translate(876.051 529.523) rotate(180)" fill="#707070">
      <path d="M 15.3069896697998 13.12977981567383 L 0.8783723711967468 13.12977981567383 L 8.092680931091309 0.9793622493743896 L 15.3069896697998 13.12977981567383 Z" stroke="none"/>
      <path d="M 8.092680931091309 1.958707809448242 L 1.756733894348145 12.62977981567383 L 14.42862796783447 12.62977981567383 L 8.092680931091309 1.958707809448242 M 8.092680931091309 -9.5367431640625e-07 L 16.18536186218262 13.62977981567383 L 0 13.62977981567383 L 8.092680931091309 -9.5367431640625e-07 Z" stroke="none" fill="#707070"/>
    </g>
    <g id="Trazado_632709" data-name="Trazado 632709" transform="translate(516.435 568.82) rotate(180)" fill="#707070">
      <path d="M 15.3069896697998 13.12977981567383 L 0.8783723711967468 13.12977981567383 L 8.092680931091309 0.9793622493743896 L 15.3069896697998 13.12977981567383 Z" stroke="none"/>
      <path d="M 8.092680931091309 1.958707809448242 L 1.756733894348145 12.62977981567383 L 14.42862796783447 12.62977981567383 L 8.092680931091309 1.958707809448242 M 8.092680931091309 -9.5367431640625e-07 L 16.18536186218262 13.62977981567383 L 0 13.62977981567383 L 8.092680931091309 -9.5367431640625e-07 Z" stroke="none" fill="#707070"/>
    </g>
    <path id="Trazado_632714" data-name="Trazado 632714" d="M13,0H191.916a13,13,0,0,1,13,13V42.954a13,13,0,0,1-13,13H13a13,13,0,0,1-13-13V13A13,13,0,0,1,13,0Z" transform="translate(765.779 443.754)" fill="#ef3c79"/>
    <path id="Trazado_632713" data-name="Trazado 632713" d="M43.686,19h-3.3V8.434h3.3Zm-3.5-13.291A1.469,1.469,0,0,1,40.7,4.557a2.159,2.159,0,0,1,2.637,0,1.469,1.469,0,0,1,.508,1.152,1.469,1.469,0,0,1-.508,1.152,2.159,2.159,0,0,1-2.637,0A1.469,1.469,0,0,1,40.189,5.709Zm8.545,2.725.107,1.24a3.583,3.583,0,0,1,3.018-1.436,3.015,3.015,0,0,1,2.466.986,4.7,4.7,0,0,1,.845,2.969V19h-3.3V12.33a1.783,1.783,0,0,0-.322-1.177,1.491,1.491,0,0,0-1.172-.376,1.569,1.569,0,0,0-1.436.762V19H45.648V8.434Zm12.09-2.627V8.434h1.738v2.285H60.824v4.834a1.234,1.234,0,0,0,.215.83,1.152,1.152,0,0,0,.85.234,4.828,4.828,0,0,0,.82-.059v2.354a6.074,6.074,0,0,1-1.855.283,3.448,3.448,0,0,1-2.51-.8,3.282,3.282,0,0,1-.811-2.432V10.719H56.186V8.434h1.348V5.807Zm9.424,5.605-1.084-.078a1.947,1.947,0,0,0-1.992.977V19H63.881V8.434h3.086l.107,1.357a2.548,2.548,0,0,1,2.314-1.553,3.209,3.209,0,0,1,.918.117Zm.42,2.207a6.236,6.236,0,0,1,.615-2.817,4.4,4.4,0,0,1,1.768-1.9,5.323,5.323,0,0,1,2.705-.664,4.858,4.858,0,0,1,3.74,1.47,5.64,5.64,0,0,1,1.367,4v.117a5.472,5.472,0,0,1-1.372,3.921,4.871,4.871,0,0,1-3.716,1.45,4.927,4.927,0,0,1-3.623-1.353,5.29,5.29,0,0,1-1.475-3.667Zm3.291.205a3.932,3.932,0,0,0,.459,2.148,1.529,1.529,0,0,0,1.357.684q1.758,0,1.8-2.705v-.332q0-2.842-1.816-2.842-1.65,0-1.787,2.451Zm7.939-.186a6.455,6.455,0,0,1,1.084-3.955A3.568,3.568,0,0,1,86.01,8.238a3.035,3.035,0,0,1,2.383,1.113V4h3.3V19H88.734l-.166-1.133A3.116,3.116,0,0,1,85.99,19.2,3.562,3.562,0,0,1,83,17.75,6.659,6.659,0,0,1,81.9,13.639Zm3.291.205q0,2.813,1.641,2.813a1.62,1.62,0,0,0,1.563-.918V11.715a1.576,1.576,0,0,0-1.543-.937q-1.523,0-1.65,2.461Zm14.668,4.014A3.393,3.393,0,0,1,97.035,19.2,3.328,3.328,0,0,1,94.4,18.185a4.251,4.251,0,0,1-.894-2.905V8.434H96.8V15.3a1.183,1.183,0,0,0,1.318,1.357,1.72,1.72,0,0,0,1.611-.811V8.434h3.311V19H99.955Zm9.453-1.2a1.464,1.464,0,0,0,1.074-.376,1.379,1.379,0,0,0,.371-1.05h3.086a3.653,3.653,0,0,1-1.245,2.852,4.631,4.631,0,0,1-3.208,1.113,4.689,4.689,0,0,1-3.633-1.445,5.7,5.7,0,0,1-1.328-4v-.137a6.436,6.436,0,0,1,.591-2.827,4.3,4.3,0,0,1,1.7-1.885,5.081,5.081,0,0,1,2.637-.659,4.573,4.573,0,0,1,3.271,1.143,4.053,4.053,0,0,1,1.211,3.1h-3.086a1.806,1.806,0,0,0-.4-1.26,1.382,1.382,0,0,0-1.074-.439q-1.279,0-1.494,1.631a11.508,11.508,0,0,0-.068,1.426,4.52,4.52,0,0,0,.381,2.207A1.319,1.319,0,0,0,109.311,16.656Zm10.391,0a1.464,1.464,0,0,0,1.074-.376,1.379,1.379,0,0,0,.371-1.05h3.086a3.653,3.653,0,0,1-1.245,2.852,4.631,4.631,0,0,1-3.208,1.113,4.689,4.689,0,0,1-3.633-1.445,5.7,5.7,0,0,1-1.328-4v-.137a6.436,6.436,0,0,1,.591-2.827,4.3,4.3,0,0,1,1.7-1.885,5.081,5.081,0,0,1,2.637-.659,4.573,4.573,0,0,1,3.271,1.143,4.053,4.053,0,0,1,1.211,3.1h-3.086a1.806,1.806,0,0,0-.4-1.26,1.382,1.382,0,0,0-1.074-.439q-1.279,0-1.494,1.631a11.508,11.508,0,0,0-.068,1.426,4.52,4.52,0,0,0,.381,2.207A1.319,1.319,0,0,0,119.7,16.656ZM129.1,19h-3.3V8.434h3.3ZM125.6,5.709a1.469,1.469,0,0,1,.508-1.152,2.159,2.159,0,0,1,2.637,0,1.469,1.469,0,0,1,.508,1.152,1.469,1.469,0,0,1-.508,1.152,2.159,2.159,0,0,1-2.637,0A1.469,1.469,0,0,1,125.6,5.709Zm5.107,7.91a6.236,6.236,0,0,1,.615-2.817,4.4,4.4,0,0,1,1.768-1.9,5.323,5.323,0,0,1,2.705-.664,4.858,4.858,0,0,1,3.74,1.47,5.64,5.64,0,0,1,1.367,4v.117a5.472,5.472,0,0,1-1.372,3.921,4.871,4.871,0,0,1-3.716,1.45,4.927,4.927,0,0,1-3.623-1.353,5.29,5.29,0,0,1-1.475-3.667Zm3.291.205a3.932,3.932,0,0,0,.459,2.148,1.529,1.529,0,0,0,1.357.684q1.758,0,1.8-2.705v-.332q0-2.842-1.816-2.842-1.65,0-1.787,2.451ZM136.244,4h3.477l-2.715,3.066-2.686,0Zm9.131,4.434.107,1.24A3.583,3.583,0,0,1,148.5,8.238a3.015,3.015,0,0,1,2.466.986,4.7,4.7,0,0,1,.845,2.969V19h-3.3V12.33a1.783,1.783,0,0,0-.322-1.177,1.491,1.491,0,0,0-1.172-.376,1.569,1.569,0,0,0-1.436.762V19h-3.291V8.434Z" transform="translate(771.965 458.68)" fill="#fff"/>
    <path id="Trazado_632700" data-name="Trazado 632700" d="M17,0H204.916a17,17,0,0,1,17,17V89.443a17,17,0,0,1-17,17H17a17,17,0,0,1-17-17V17A17,17,0,0,1,17,0Z" transform="translate(400 587.23)" fill="#0b5999"/>
    <path id="Trazado_632697" data-name="Trazado 632697" d="M17,0H204.916a17,17,0,0,1,17,17V89.443a17,17,0,0,1-17,17H17a17,17,0,0,1-17-17V17A17,17,0,0,1,17,0Z" transform="translate(757 587.23)" fill="#0b5999"/>
    <path id="Trazado_632702" data-name="Trazado 632702" d="M27.994,7.006H23.94V18H20.683V7.006H16.7V4.492H27.994ZM32.521,18H29.385V7.962h3.136ZM29.2,5.374a1.4,1.4,0,0,1,.482-1.095,2.051,2.051,0,0,1,2.5,0,1.4,1.4,0,0,1,.482,1.095,1.4,1.4,0,0,1-.482,1.095,2.051,2.051,0,0,1-2.5,0A1.4,1.4,0,0,1,29.2,5.374Zm14.565,7.682a6.053,6.053,0,0,1-1.053,3.734,3.376,3.376,0,0,1-2.844,1.4A2.894,2.894,0,0,1,37.6,17.174v4.685H34.469V7.962h2.922l.093.928A2.894,2.894,0,0,1,39.85,7.776a3.4,3.4,0,0,1,2.885,1.368,6.128,6.128,0,0,1,1.03,3.762Zm-3.126-.195q0-2.672-1.559-2.672a1.471,1.471,0,0,0-1.484.8v3.952a1.519,1.519,0,0,0,1.5.835q1.494,0,1.54-2.579Zm4.11.028a5.925,5.925,0,0,1,.584-2.677,4.18,4.18,0,0,1,1.679-1.8,5.057,5.057,0,0,1,2.57-.631,4.616,4.616,0,0,1,3.553,1.4,5.358,5.358,0,0,1,1.3,3.8v.111a5.2,5.2,0,0,1-1.3,3.725,4.628,4.628,0,0,1-3.53,1.378A4.681,4.681,0,0,1,46.159,16.9a5.026,5.026,0,0,1-1.4-3.484Zm3.126.195a3.735,3.735,0,0,0,.436,2.041,1.453,1.453,0,0,0,1.29.649q1.67,0,1.707-2.57v-.315q0-2.7-1.726-2.7-1.568,0-1.7,2.329Zm13.192,2.1a.722.722,0,0,0-.417-.64,6.35,6.35,0,0,0-1.586-.5,7.234,7.234,0,0,1-1.93-.682,3.232,3.232,0,0,1-1.16-1.025,2.448,2.448,0,0,1-.4-1.382,2.774,2.774,0,0,1,1.141-2.278,4.7,4.7,0,0,1,2.987-.9,5.208,5.208,0,0,1,3.191.9A2.814,2.814,0,0,1,64.1,11.042H60.965q0-1.206-1.271-1.206a1.26,1.26,0,0,0-.826.274.847.847,0,0,0-.334.682.778.778,0,0,0,.408.677,3.857,3.857,0,0,0,1.3.427,11.264,11.264,0,0,1,1.573.4,2.857,2.857,0,0,1,2.264,2.792,2.629,2.629,0,0,1-1.22,2.236,5.35,5.35,0,0,1-3.159.863,5.46,5.46,0,0,1-2.3-.464,3.847,3.847,0,0,1-1.577-1.262,2.857,2.857,0,0,1-.566-1.679h2.922a1.208,1.208,0,0,0,.464,1.016,1.908,1.908,0,0,0,1.141.32,1.5,1.5,0,0,0,.96-.26A.831.831,0,0,0,61.068,15.18Zm8.813-2.273a6.132,6.132,0,0,1,1.03-3.757,3.39,3.39,0,0,1,2.876-1.373A2.883,2.883,0,0,1,76.05,8.834V3.75h3.136V18H76.375l-.158-1.076a2.96,2.96,0,0,1-2.449,1.262,3.383,3.383,0,0,1-2.839-1.373A6.326,6.326,0,0,1,69.881,12.907Zm3.126.195q0,2.672,1.559,2.672A1.539,1.539,0,0,0,76.05,14.9V11.079a1.5,1.5,0,0,0-1.466-.891q-1.447,0-1.568,2.338Zm12.812,5.084a5.16,5.16,0,0,1-3.739-1.378,4.757,4.757,0,0,1-1.429-3.586v-.26a6.165,6.165,0,0,1,.571-2.718,4.175,4.175,0,0,1,1.665-1.823,5.027,5.027,0,0,1,2.6-.645,4.345,4.345,0,0,1,3.34,1.313,5.159,5.159,0,0,1,1.225,3.66v1.215H83.834a2.253,2.253,0,0,0,.733,1.327,2.181,2.181,0,0,0,1.466.482,2.81,2.81,0,0,0,2.319-1.039l1.429,1.688a3.994,3.994,0,0,1-1.656,1.285A5.6,5.6,0,0,1,85.819,18.186Zm-.353-8q-1.373,0-1.633,1.818h3.154v-.241a1.549,1.549,0,0,0-.38-1.164A1.514,1.514,0,0,0,85.467,10.188ZM103.15,14.41a1.338,1.338,0,0,0-.506-1.113,6.284,6.284,0,0,0-1.777-.826,17.045,17.045,0,0,1-2.078-.826q-2.625-1.29-2.625-3.544a3.178,3.178,0,0,1,.654-1.981,4.23,4.23,0,0,1,1.851-1.336,7.2,7.2,0,0,1,2.69-.478,6.3,6.3,0,0,1,2.612.52,4.135,4.135,0,0,1,1.8,1.48,3.864,3.864,0,0,1,.64,2.194h-3.247a1.633,1.633,0,0,0-.506-1.28,1.971,1.971,0,0,0-1.368-.455,2.222,2.222,0,0,0-1.378.385,1.134,1.134,0,0,0,.051,1.92,7.02,7.02,0,0,0,1.958.872,11.991,11.991,0,0,1,2.3.969,3.866,3.866,0,0,1,2.189,3.479,3.3,3.3,0,0,1-1.336,2.783,5.942,5.942,0,0,1-3.665,1.011,7.27,7.27,0,0,1-2.973-.589,4.483,4.483,0,0,1-2-1.614,4.206,4.206,0,0,1-.673-2.361h3.266a2.072,2.072,0,0,0,.561,1.6,2.653,2.653,0,0,0,1.823.515,2.1,2.1,0,0,0,1.276-.348A1.148,1.148,0,0,0,103.15,14.41Zm9.639,3.776a5.16,5.16,0,0,1-3.739-1.378,4.757,4.757,0,0,1-1.429-3.586v-.26a6.165,6.165,0,0,1,.571-2.718,4.175,4.175,0,0,1,1.665-1.823,5.027,5.027,0,0,1,2.6-.645,4.345,4.345,0,0,1,3.34,1.313,5.159,5.159,0,0,1,1.225,3.66v1.215H110.8a2.253,2.253,0,0,0,.733,1.327,2.181,2.181,0,0,0,1.466.482,2.81,2.81,0,0,0,2.319-1.039l1.429,1.688a3.994,3.994,0,0,1-1.656,1.285A5.6,5.6,0,0,1,112.789,18.186Zm-.353-8q-1.373,0-1.633,1.818h3.154v-.241a1.549,1.549,0,0,0-.38-1.164A1.514,1.514,0,0,0,112.436,10.188Zm11.912.6-1.03-.074a1.85,1.85,0,0,0-1.893.928V18H118.3V7.962h2.932l.1,1.29a2.421,2.421,0,0,1,2.2-1.475,3.049,3.049,0,0,1,.872.111Zm5.3,3.488,1.586-6.318h3.293L131.251,18h-3.191L124.784,7.962h3.3Zm9.11,3.72H135.62V7.962h3.136ZM135.435,5.374a1.4,1.4,0,0,1,.482-1.095,2.051,2.051,0,0,1,2.5,0,1.4,1.4,0,0,1,.482,1.095,1.4,1.4,0,0,1-.482,1.095,2.051,2.051,0,0,1-2.5,0A1.4,1.4,0,0,1,135.435,5.374Zm9.491,10.4a1.391,1.391,0,0,0,1.021-.357,1.31,1.31,0,0,0,.353-1h2.932a3.47,3.47,0,0,1-1.183,2.709A4.4,4.4,0,0,1,145,18.186a4.455,4.455,0,0,1-3.451-1.373,5.41,5.41,0,0,1-1.262-3.8v-.13a6.114,6.114,0,0,1,.561-2.686A4.087,4.087,0,0,1,142.467,8.4a4.827,4.827,0,0,1,2.5-.626,4.344,4.344,0,0,1,3.108,1.085,3.85,3.85,0,0,1,1.15,2.941H146.3a1.716,1.716,0,0,0-.38-1.2,1.313,1.313,0,0,0-1.021-.417q-1.215,0-1.419,1.549a10.933,10.933,0,0,0-.065,1.354,4.294,4.294,0,0,0,.362,2.1A1.253,1.253,0,0,0,144.925,15.773ZM153.85,18h-3.136V7.962h3.136ZM150.529,5.374a1.4,1.4,0,0,1,.482-1.095,2.051,2.051,0,0,1,2.5,0A1.4,1.4,0,0,1,154,5.374a1.4,1.4,0,0,1-.482,1.095,2.051,2.051,0,0,1-2.5,0A1.4,1.4,0,0,1,150.529,5.374Zm4.852,7.515a5.925,5.925,0,0,1,.584-2.677,4.18,4.18,0,0,1,1.679-1.8,5.057,5.057,0,0,1,2.57-.631,4.616,4.616,0,0,1,3.553,1.4,5.358,5.358,0,0,1,1.3,3.8v.111a5.2,5.2,0,0,1-1.3,3.725,4.628,4.628,0,0,1-3.53,1.378,4.681,4.681,0,0,1-3.442-1.285,5.026,5.026,0,0,1-1.4-3.484Zm3.126.195a3.735,3.735,0,0,0,.436,2.041,1.453,1.453,0,0,0,1.29.649q1.67,0,1.707-2.57v-.315q0-2.7-1.726-2.7-1.568,0-1.7,2.329Zm13.192,2.1a.722.722,0,0,0-.417-.64,6.35,6.35,0,0,0-1.586-.5,7.234,7.234,0,0,1-1.93-.682,3.232,3.232,0,0,1-1.16-1.025,2.448,2.448,0,0,1-.4-1.382,2.774,2.774,0,0,1,1.141-2.278,4.7,4.7,0,0,1,2.987-.9,5.208,5.208,0,0,1,3.191.9,2.814,2.814,0,0,1,1.206,2.366H171.6q0-1.206-1.271-1.206a1.26,1.26,0,0,0-.826.274.847.847,0,0,0-.334.682.778.778,0,0,0,.408.677,3.857,3.857,0,0,0,1.3.427,11.264,11.264,0,0,1,1.573.4,2.857,2.857,0,0,1,2.264,2.792,2.629,2.629,0,0,1-1.22,2.236,5.35,5.35,0,0,1-3.159.863,5.46,5.46,0,0,1-2.3-.464,3.847,3.847,0,0,1-1.577-1.262,2.857,2.857,0,0,1-.566-1.679h2.922a1.208,1.208,0,0,0,.464,1.016,1.908,1.908,0,0,0,1.141.32,1.5,1.5,0,0,0,.96-.26A.831.831,0,0,0,171.7,15.18ZM88.686,39.962l1.549-8.47h3.229L90.6,45H87.22l-1.809-7.7L83.639,45H80.272L77.4,31.492h3.238l1.549,8.47,1.855-8.47H86.8ZM99.16,45.186a5.16,5.16,0,0,1-3.739-1.378,4.757,4.757,0,0,1-1.429-3.586v-.26a6.165,6.165,0,0,1,.571-2.718,4.175,4.175,0,0,1,1.665-1.823,5.027,5.027,0,0,1,2.6-.645,4.345,4.345,0,0,1,3.34,1.313,5.159,5.159,0,0,1,1.225,3.66v1.215H97.175a2.253,2.253,0,0,0,.733,1.327,2.181,2.181,0,0,0,1.466.482,2.81,2.81,0,0,0,2.319-1.039l1.429,1.688a3.994,3.994,0,0,1-1.656,1.285A5.6,5.6,0,0,1,99.16,45.186Zm-.353-8q-1.373,0-1.633,1.818h3.154v-.241a1.549,1.549,0,0,0-.38-1.164A1.514,1.514,0,0,0,98.808,37.188Zm15.159,2.876a6.118,6.118,0,0,1-1.021,3.794,3.418,3.418,0,0,1-2.876,1.327A2.966,2.966,0,0,1,107.6,43.97l-.13,1.03h-2.8V30.75H107.8v5.019a2.862,2.862,0,0,1,2.254-.993,3.419,3.419,0,0,1,2.895,1.345,6.15,6.15,0,0,1,1.021,3.785Zm-3.136-.2a4.081,4.081,0,0,0-.385-2.061,1.3,1.3,0,0,0-1.183-.616,1.5,1.5,0,0,0-1.466.806v3.983a1.505,1.505,0,0,0,1.484.8,1.328,1.328,0,0,0,1.4-1.074A7.715,7.715,0,0,0,110.831,39.865Z" transform="translate(417 615.452)" fill="#fff"/>
    <path id="Trazado_632703" data-name="Trazado 632703" d="M12.978,4.492l3.015,9.4L19,4.492h4.286V18H20.02V14.846l.315-6.457L17.07,18H14.917L11.642,8.379l.315,6.466V18H8.7V4.492ZM30.067,18.186a5.16,5.16,0,0,1-3.739-1.378A4.757,4.757,0,0,1,24.9,13.222v-.26a6.165,6.165,0,0,1,.571-2.718,4.175,4.175,0,0,1,1.665-1.823,5.027,5.027,0,0,1,2.6-.645,4.345,4.345,0,0,1,3.34,1.313,5.159,5.159,0,0,1,1.225,3.66v1.215H28.082a2.253,2.253,0,0,0,.733,1.327,2.181,2.181,0,0,0,1.466.482A2.81,2.81,0,0,0,32.6,14.734l1.429,1.688a3.994,3.994,0,0,1-1.656,1.285A5.6,5.6,0,0,1,30.067,18.186Zm-.353-8q-1.373,0-1.633,1.818h3.154v-.241a1.549,1.549,0,0,0-.38-1.164A1.514,1.514,0,0,0,29.715,10.188Zm-.037-6.448h3.3L30.4,6.654l-2.551,0ZM39.2,5.466v2.5h1.651v2.171H39.2v4.592a1.173,1.173,0,0,0,.2.789,1.1,1.1,0,0,0,.807.223,4.586,4.586,0,0,0,.779-.056v2.236a5.77,5.77,0,0,1-1.763.269,3.275,3.275,0,0,1-2.384-.761,3.118,3.118,0,0,1-.77-2.31V10.133h-1.28V7.962h1.28v-2.5ZM41.4,12.888a5.925,5.925,0,0,1,.584-2.677,4.18,4.18,0,0,1,1.679-1.8,5.057,5.057,0,0,1,2.57-.631,4.616,4.616,0,0,1,3.553,1.4,5.358,5.358,0,0,1,1.3,3.8v.111a5.2,5.2,0,0,1-1.3,3.725,4.628,4.628,0,0,1-3.53,1.378A4.681,4.681,0,0,1,42.814,16.9a5.026,5.026,0,0,1-1.4-3.484Zm3.126.195a3.735,3.735,0,0,0,.436,2.041,1.453,1.453,0,0,0,1.29.649q1.67,0,1.707-2.57v-.315q0-2.7-1.726-2.7-1.568,0-1.7,2.329Zm7.542-.176A6.132,6.132,0,0,1,53.1,9.149a3.39,3.39,0,0,1,2.876-1.373,2.883,2.883,0,0,1,2.264,1.058V3.75h3.136V18H58.567l-.158-1.076a2.96,2.96,0,0,1-2.449,1.262,3.383,3.383,0,0,1-2.839-1.373A6.326,6.326,0,0,1,52.073,12.907ZM55.2,13.1q0,2.672,1.559,2.672a1.539,1.539,0,0,0,1.484-.872V11.079a1.5,1.5,0,0,0-1.466-.891q-1.447,0-1.568,2.338Zm7.561-.213a5.925,5.925,0,0,1,.584-2.677,4.18,4.18,0,0,1,1.679-1.8,5.057,5.057,0,0,1,2.57-.631,4.616,4.616,0,0,1,3.553,1.4,5.358,5.358,0,0,1,1.3,3.8v.111a5.2,5.2,0,0,1-1.3,3.725,4.628,4.628,0,0,1-3.53,1.378A4.681,4.681,0,0,1,64.171,16.9a5.026,5.026,0,0,1-1.4-3.484Zm3.126.195a3.735,3.735,0,0,0,.436,2.041,1.453,1.453,0,0,0,1.29.649q1.67,0,1.707-2.57v-.315q0-2.7-1.726-2.7-1.568,0-1.7,2.329Zm13.192,2.1a.722.722,0,0,0-.417-.64,6.35,6.35,0,0,0-1.586-.5,7.234,7.234,0,0,1-1.93-.682,3.232,3.232,0,0,1-1.16-1.025,2.448,2.448,0,0,1-.4-1.382,2.774,2.774,0,0,1,1.141-2.278,4.7,4.7,0,0,1,2.987-.9,5.208,5.208,0,0,1,3.191.9,2.814,2.814,0,0,1,1.206,2.366H78.977q0-1.206-1.271-1.206a1.26,1.26,0,0,0-.826.274.847.847,0,0,0-.334.682.778.778,0,0,0,.408.677,3.857,3.857,0,0,0,1.3.427,11.264,11.264,0,0,1,1.573.4,2.857,2.857,0,0,1,2.264,2.792,2.629,2.629,0,0,1-1.22,2.236,5.35,5.35,0,0,1-3.159.863,5.46,5.46,0,0,1-2.3-.464,3.847,3.847,0,0,1-1.577-1.262,2.857,2.857,0,0,1-.566-1.679h2.922a1.208,1.208,0,0,0,.464,1.016,1.908,1.908,0,0,0,1.141.32,1.5,1.5,0,0,0,.96-.26A.831.831,0,0,0,79.079,15.18Zm8.813-2.273a6.132,6.132,0,0,1,1.03-3.757A3.39,3.39,0,0,1,91.8,7.776a2.883,2.883,0,0,1,2.264,1.058V3.75H97.2V18H94.387l-.158-1.076a2.96,2.96,0,0,1-2.449,1.262,3.383,3.383,0,0,1-2.839-1.373A6.326,6.326,0,0,1,87.893,12.907Zm3.126.195q0,2.672,1.559,2.672a1.539,1.539,0,0,0,1.484-.872V11.079a1.5,1.5,0,0,0-1.466-.891q-1.447,0-1.568,2.338Zm12.812,5.084a5.16,5.16,0,0,1-3.739-1.378,4.757,4.757,0,0,1-1.429-3.586v-.26a6.165,6.165,0,0,1,.571-2.718A4.175,4.175,0,0,1,100.9,8.421a5.027,5.027,0,0,1,2.6-.645,4.345,4.345,0,0,1,3.34,1.313,5.159,5.159,0,0,1,1.225,3.66v1.215h-6.216a2.253,2.253,0,0,0,.733,1.327,2.181,2.181,0,0,0,1.466.482,2.81,2.81,0,0,0,2.319-1.039l1.429,1.688a3.994,3.994,0,0,1-1.656,1.285A5.6,5.6,0,0,1,103.831,18.186Zm-.353-8q-1.373,0-1.633,1.818H105v-.241a1.549,1.549,0,0,0-.38-1.164A1.514,1.514,0,0,0,103.479,10.188Zm13.972,3.229V18h-3.256V4.492h5.39a6.278,6.278,0,0,1,2.741.571,4.3,4.3,0,0,1,1.846,1.624,4.434,4.434,0,0,1,.654,2.389,3.909,3.909,0,0,1-1.415,3.159,5.87,5.87,0,0,1-3.883,1.183Zm0-2.514h2.134a2.012,2.012,0,0,0,1.443-.473,1.758,1.758,0,0,0,.5-1.336,2.173,2.173,0,0,0-.51-1.512,1.807,1.807,0,0,0-1.392-.575h-2.171Zm13.7,7.283a5.16,5.16,0,0,1-3.739-1.378,4.757,4.757,0,0,1-1.429-3.586v-.26a6.165,6.165,0,0,1,.571-2.718,4.175,4.175,0,0,1,1.665-1.823,5.027,5.027,0,0,1,2.6-.645,4.345,4.345,0,0,1,3.34,1.313,5.159,5.159,0,0,1,1.225,3.66v1.215h-6.216a2.253,2.253,0,0,0,.733,1.327,2.181,2.181,0,0,0,1.466.482,2.81,2.81,0,0,0,2.319-1.039l1.429,1.688a3.994,3.994,0,0,1-1.656,1.285A5.6,5.6,0,0,1,131.153,18.186Zm-.353-8q-1.373,0-1.633,1.818h3.154v-.241a1.549,1.549,0,0,0-.38-1.164A1.514,1.514,0,0,0,130.8,10.188Zm9.481-4.722v2.5h1.651v2.171h-1.651v4.592a1.173,1.173,0,0,0,.2.789,1.1,1.1,0,0,0,.807.223,4.586,4.586,0,0,0,.779-.056v2.236a5.77,5.77,0,0,1-1.763.269,3.275,3.275,0,0,1-2.384-.761,3.118,3.118,0,0,1-.77-2.31V10.133h-1.28V7.962h1.28v-2.5ZM146.461,18h-3.136V7.962h3.136ZM143.14,5.374a1.4,1.4,0,0,1,.482-1.095,2.051,2.051,0,0,1,2.5,0,1.4,1.4,0,0,1,.482,1.095,1.4,1.4,0,0,1-.482,1.095,2.051,2.051,0,0,1-2.5,0A1.4,1.4,0,0,1,143.14,5.374Zm9.491,10.4a1.391,1.391,0,0,0,1.021-.357,1.31,1.31,0,0,0,.353-1h2.932a3.47,3.47,0,0,1-1.183,2.709,4.4,4.4,0,0,1-3.048,1.058,4.455,4.455,0,0,1-3.451-1.373,5.41,5.41,0,0,1-1.262-3.8v-.13a6.114,6.114,0,0,1,.561-2.686A4.087,4.087,0,0,1,150.172,8.4a4.827,4.827,0,0,1,2.5-.626,4.344,4.344,0,0,1,3.108,1.085,3.85,3.85,0,0,1,1.15,2.941H154a1.716,1.716,0,0,0-.38-1.2,1.313,1.313,0,0,0-1.021-.417q-1.215,0-1.419,1.549a10.933,10.933,0,0,0-.065,1.354,4.294,4.294,0,0,0,.362,2.1A1.253,1.253,0,0,0,152.63,15.773ZM161.555,18h-3.136V7.962h3.136ZM158.234,5.374a1.4,1.4,0,0,1,.482-1.095,2.051,2.051,0,0,1,2.5,0,1.4,1.4,0,0,1,.482,1.095,1.4,1.4,0,0,1-.482,1.095,2.051,2.051,0,0,1-2.5,0A1.4,1.4,0,0,1,158.234,5.374Zm4.852,7.515a5.925,5.925,0,0,1,.584-2.677,4.18,4.18,0,0,1,1.679-1.8,5.057,5.057,0,0,1,2.57-.631,4.616,4.616,0,0,1,3.553,1.4,5.358,5.358,0,0,1,1.3,3.8v.111a5.2,5.2,0,0,1-1.3,3.725,4.628,4.628,0,0,1-3.53,1.378A4.681,4.681,0,0,1,164.5,16.9a5.026,5.026,0,0,1-1.4-3.484Zm3.126.195a3.735,3.735,0,0,0,.436,2.041,1.453,1.453,0,0,0,1.29.649q1.67,0,1.707-2.57v-.315q0-2.7-1.726-2.7-1.568,0-1.7,2.329Zm2.134-9.333h3.3L169.07,6.663l-2.551,0Zm8.674,4.212.1,1.178a3.4,3.4,0,0,1,2.867-1.364,2.864,2.864,0,0,1,2.343.937,4.461,4.461,0,0,1,.8,2.82V18H180V11.664a1.694,1.694,0,0,0-.306-1.118,1.416,1.416,0,0,0-1.113-.357,1.491,1.491,0,0,0-1.364.724V18h-3.126V7.962Z" transform="translate(772 628.952)" fill="#fff"/>
    <path id="Trazado_632633" data-name="Trazado 632633" d="M-11903.042-9629.908v17.641" transform="translate(12771 10168.913)" fill="none" stroke="#707070" stroke-width="1"/>
    <path id="Trazado_632634" data-name="Trazado 632634" d="M-11903.042-9629.908v17.641" transform="translate(12771 10129.616)" fill="none" stroke="#707070" stroke-width="1"/>
    <path id="Trazado_632711" data-name="Trazado 632711" d="M17,0H68.221a17,17,0,0,1,17,17V73.637a17,17,0,0,1-17,17H17a17,17,0,0,1-17-17V17A17,17,0,0,1,17,0Z" transform="translate(266.639 793.321)" fill="#21cbae"/>
    <path id="Trazado_632706" data-name="Trazado 632706" d="M17,0H68.221a17,17,0,0,1,17,17V73.637a17,17,0,0,1-17,17H17a17,17,0,0,1-17-17V17A17,17,0,0,1,17,0Z" transform="translate(380.859 793.321)" fill="#21cbae"/>
    <path id="Trazado_632704" data-name="Trazado 632704" d="M17,0H88a17,17,0,0,1,17,17V73.637a17,17,0,0,1-17,17H17a17,17,0,0,1-17-17V17A17,17,0,0,1,17,0Z" transform="translate(485.859 793.321)" fill="#21cbae"/>
    <path id="Trazado_632691" data-name="Trazado 632691" d="M17,0H134a17,17,0,0,1,17,17V73.637a17,17,0,0,1-17,17H17a17,17,0,0,1-17-17V17A17,17,0,0,1,17,0Z" transform="translate(610.859 793.321)" fill="#21cbae"/>
    <path id="Trazado_632710" data-name="Trazado 632710" d="M77.861,15.221a1.408,1.408,0,0,0-.532-1.172,6.615,6.615,0,0,0-1.87-.869,17.941,17.941,0,0,1-2.187-.869q-2.764-1.357-2.764-3.73A3.345,3.345,0,0,1,71.2,6.5a4.453,4.453,0,0,1,1.948-1.406,7.582,7.582,0,0,1,2.832-.5,6.632,6.632,0,0,1,2.749.547,4.352,4.352,0,0,1,1.89,1.558A4.068,4.068,0,0,1,81.288,9H77.871a1.719,1.719,0,0,0-.532-1.348,2.075,2.075,0,0,0-1.44-.479,2.339,2.339,0,0,0-1.45.405A1.193,1.193,0,0,0,74.5,9.6a7.389,7.389,0,0,0,2.061.918,12.623,12.623,0,0,1,2.422,1.021,4.07,4.07,0,0,1,2.3,3.662,3.472,3.472,0,0,1-1.406,2.93A6.255,6.255,0,0,1,76.025,19.2a7.653,7.653,0,0,1-3.13-.62,4.719,4.719,0,0,1-2.109-1.7,4.427,4.427,0,0,1-.708-2.485h3.438a2.181,2.181,0,0,0,.591,1.685,2.793,2.793,0,0,0,1.919.542,2.206,2.206,0,0,0,1.343-.366A1.209,1.209,0,0,0,77.861,15.221Zm17.227-3.037a8.385,8.385,0,0,1-.771,3.682,5.7,5.7,0,0,1-2.192,2.466,6.1,6.1,0,0,1-3.237.864,6.191,6.191,0,0,1-3.223-.835,5.692,5.692,0,0,1-2.192-2.388,8.144,8.144,0,0,1-.825-3.564v-.8a8.422,8.422,0,0,1,.767-3.687,5.688,5.688,0,0,1,2.2-2.466,6.5,6.5,0,0,1,6.479-.01,5.79,5.79,0,0,1,2.2,2.446,8.18,8.18,0,0,1,.8,3.638Zm-3.486-.6a5.979,5.979,0,0,0-.708-3.218,2.271,2.271,0,0,0-2.026-1.1q-2.578,0-2.725,3.867l-.01,1.045a6.149,6.149,0,0,0,.693,3.213,2.268,2.268,0,0,0,2.061,1.123,2.24,2.24,0,0,0,2-1.1,5.982,5.982,0,0,0,.713-3.174Zm13.125,4.756h-4.7L99.208,19H95.546l5.215-14.219h3.223L109.238,19h-3.682ZM100.849,13.7h3.057l-1.533-4.932Zm12.852.479V19h-3.428V4.781h5.674a6.608,6.608,0,0,1,2.886.6,4.526,4.526,0,0,1,1.943,1.709,4.667,4.667,0,0,1,.688,2.515,4.114,4.114,0,0,1-1.489,3.325,6.179,6.179,0,0,1-4.087,1.245Zm0-2.646h2.246a2.118,2.118,0,0,0,1.519-.5,1.85,1.85,0,0,0,.522-1.406,2.287,2.287,0,0,0-.537-1.592,1.9,1.9,0,0,0-1.465-.605H113.7Z" transform="translate(217.639 827.321)" fill="#12263f"/>
    <path id="Trazado_632705" data-name="Trazado 632705" d="M82.6,13.971H80.742V19H77.314V4.781h5.6A6.246,6.246,0,0,1,86.865,5.9a3.8,3.8,0,0,1,1.426,3.17,4.616,4.616,0,0,1-.6,2.458,4.263,4.263,0,0,1-1.88,1.58l2.969,5.741V19H85.107Zm-1.855-2.637H82.91a1.946,1.946,0,0,0,1.47-.514,1.987,1.987,0,0,0,.493-1.434,2.01,2.01,0,0,0-.5-1.444,1.928,1.928,0,0,0-1.465-.524H80.742Zm21.123,2.852a5.193,5.193,0,0,1-.8,2.622,4.833,4.833,0,0,1-2.056,1.763,7,7,0,0,1-3.022.625,5.584,5.584,0,0,1-4.414-1.826,7.54,7.54,0,0,1-1.611-5.156v-.7a8.607,8.607,0,0,1,.728-3.657,5.513,5.513,0,0,1,2.095-2.422,5.844,5.844,0,0,1,3.164-.854,6.129,6.129,0,0,1,4.16,1.362,5.383,5.383,0,0,1,1.787,3.755H98.476a2.547,2.547,0,0,0-.654-1.865,2.691,2.691,0,0,0-1.875-.566,2.048,2.048,0,0,0-1.875.957,6.151,6.151,0,0,0-.625,3.057v1.006a6.806,6.806,0,0,0,.571,3.252,2.091,2.091,0,0,0,1.968.977,2.632,2.632,0,0,0,1.807-.557,2.363,2.363,0,0,0,.664-1.768Zm5.049-.01V19h-3.428V4.781h5.674a6.608,6.608,0,0,1,2.886.6,4.526,4.526,0,0,1,1.943,1.709,4.667,4.667,0,0,1,.688,2.515,4.114,4.114,0,0,1-1.489,3.325,6.179,6.179,0,0,1-4.087,1.245Zm0-2.646h2.246a2.118,2.118,0,0,0,1.519-.5,1.85,1.85,0,0,0,.522-1.406,2.287,2.287,0,0,0-.537-1.592,1.9,1.9,0,0,0-1.465-.605h-2.285Z" transform="translate(331.859 827.321)" fill="#12263f"/>
    <path id="Trazado_632701" data-name="Trazado 632701" d="M59.975,13.971H58.12V19H54.692V4.781h5.6A6.246,6.246,0,0,1,64.243,5.9a3.8,3.8,0,0,1,1.426,3.17,4.616,4.616,0,0,1-.6,2.458,4.263,4.263,0,0,1-1.88,1.58l2.969,5.741V19H62.485ZM58.12,11.334h2.168a1.946,1.946,0,0,0,1.47-.514,1.987,1.987,0,0,0,.493-1.434,2.01,2.01,0,0,0-.5-1.444,1.928,1.928,0,0,0-1.465-.524H58.12Zm18.438,1.631H71.166v3.4h6.367V19H67.739V4.781h9.814V7.428H71.166v3h5.391Zm9.707,2.256a1.408,1.408,0,0,0-.532-1.172,6.615,6.615,0,0,0-1.87-.869,17.941,17.941,0,0,1-2.187-.869q-2.764-1.357-2.764-3.73A3.345,3.345,0,0,1,79.6,6.5a4.453,4.453,0,0,1,1.948-1.406,7.582,7.582,0,0,1,2.832-.5,6.632,6.632,0,0,1,2.749.547,4.352,4.352,0,0,1,1.89,1.558A4.068,4.068,0,0,1,89.692,9H86.274a1.719,1.719,0,0,0-.532-1.348,2.075,2.075,0,0,0-1.44-.479,2.339,2.339,0,0,0-1.45.405A1.193,1.193,0,0,0,82.9,9.6a7.389,7.389,0,0,0,2.061.918,12.623,12.623,0,0,1,2.422,1.021,4.07,4.07,0,0,1,2.3,3.662,3.472,3.472,0,0,1-1.406,2.93A6.255,6.255,0,0,1,84.428,19.2a7.653,7.653,0,0,1-3.13-.62,4.719,4.719,0,0,1-2.109-1.7,4.427,4.427,0,0,1-.708-2.485h3.438a2.181,2.181,0,0,0,.591,1.685,2.793,2.793,0,0,0,1.919.542,2.206,2.206,0,0,0,1.343-.366A1.209,1.209,0,0,0,86.264,15.221Zm16.348-7.793H98.344V19H94.916V7.428H90.727V4.781h11.885Zm10.4,5.908h-5.527V19h-3.428V4.781h9.512V7.428h-6.084V10.7h5.527Zm13.135-8.555v9.307a5.349,5.349,0,0,1-.674,2.739,4.365,4.365,0,0,1-1.934,1.763,6.812,6.812,0,0,1-2.979.605,5.885,5.885,0,0,1-4.092-1.348,4.806,4.806,0,0,1-1.523-3.691V4.781h3.447v9.443q.059,2.334,2.168,2.334a2.1,2.1,0,0,0,1.611-.586,2.739,2.739,0,0,0,.547-1.9V4.781Zm5.566,11.582h5.967V19h-9.395V4.781h3.428Z" transform="translate(442.859 827.321)" fill="#12263f"/>
    <path id="Trazado_632689" data-name="Trazado 632689" d="M52.558,13.336H47.031V19H43.6V4.781h9.512V7.428H47.031V10.7h5.527Zm14.023-1.152a8.385,8.385,0,0,1-.771,3.682,5.7,5.7,0,0,1-2.192,2.466,6.1,6.1,0,0,1-3.237.864,6.191,6.191,0,0,1-3.223-.835,5.692,5.692,0,0,1-2.192-2.388,8.144,8.144,0,0,1-.825-3.564v-.8a8.422,8.422,0,0,1,.767-3.687,5.688,5.688,0,0,1,2.2-2.466,6.5,6.5,0,0,1,6.479-.01,5.79,5.79,0,0,1,2.2,2.446,8.18,8.18,0,0,1,.8,3.638Zm-3.486-.6a5.979,5.979,0,0,0-.708-3.218,2.271,2.271,0,0,0-2.026-1.1q-2.578,0-2.725,3.867l-.01,1.045A6.149,6.149,0,0,0,58.32,15.4,2.268,2.268,0,0,0,60.38,16.52a2.24,2.24,0,0,0,2-1.1,5.982,5.982,0,0,0,.713-3.174Zm10.537,2.383H71.777V19H68.349V4.781h5.6A6.246,6.246,0,0,1,77.9,5.9a3.8,3.8,0,0,1,1.426,3.17,4.616,4.616,0,0,1-.6,2.458,4.263,4.263,0,0,1-1.88,1.58l2.969,5.741V19H76.142Zm-1.855-2.637h2.168a1.946,1.946,0,0,0,1.47-.514,1.987,1.987,0,0,0,.493-1.434,2.01,2.01,0,0,0-.5-1.444,1.928,1.928,0,0,0-1.465-.524H71.777ZM85.9,4.781l3.174,9.893,3.164-9.893h4.512V19H93.31V15.68l.332-6.8L90.2,19H87.939L84.492,8.873l.332,6.807V19H81.4V4.781Zm21.279,11.563h-4.7L101.66,19H98l5.215-14.219h3.223L111.689,19h-3.682ZM103.3,13.7h3.057l-1.533-4.932Zm19.414-6.27h-4.268V19h-3.428V7.428h-4.189V4.781h11.885Zm13.213,4.756a8.385,8.385,0,0,1-.771,3.682,5.7,5.7,0,0,1-2.192,2.466,6.1,6.1,0,0,1-3.237.864,6.191,6.191,0,0,1-3.223-.835,5.692,5.692,0,0,1-2.192-2.388,8.144,8.144,0,0,1-.825-3.564v-.8a8.422,8.422,0,0,1,.767-3.687,5.688,5.688,0,0,1,2.2-2.466,6.5,6.5,0,0,1,6.479-.01,5.79,5.79,0,0,1,2.2,2.446,8.18,8.18,0,0,1,.8,3.638Zm-3.486-.6a5.979,5.979,0,0,0-.708-3.218,2.271,2.271,0,0,0-2.026-1.1q-2.578,0-2.725,3.867l-.01,1.045a6.149,6.149,0,0,0,.693,3.213,2.268,2.268,0,0,0,2.061,1.123,2.24,2.24,0,0,0,2-1.1,5.982,5.982,0,0,0,.713-3.174Zm12.588,3.633a1.408,1.408,0,0,0-.532-1.172,6.615,6.615,0,0,0-1.87-.869,17.942,17.942,0,0,1-2.187-.869q-2.764-1.357-2.764-3.73a3.345,3.345,0,0,1,.688-2.085,4.453,4.453,0,0,1,1.948-1.406,7.582,7.582,0,0,1,2.832-.5,6.632,6.632,0,0,1,2.749.547,4.352,4.352,0,0,1,1.89,1.558A4.068,4.068,0,0,1,148.456,9h-3.418a1.719,1.719,0,0,0-.532-1.348,2.075,2.075,0,0,0-1.44-.479,2.339,2.339,0,0,0-1.45.405,1.193,1.193,0,0,0,.054,2.021,7.389,7.389,0,0,0,2.061.918,12.623,12.623,0,0,1,2.422,1.021,4.07,4.07,0,0,1,2.3,3.662,3.472,3.472,0,0,1-1.406,2.93,6.255,6.255,0,0,1-3.857,1.064,7.653,7.653,0,0,1-3.13-.62,4.719,4.719,0,0,1-2.109-1.7,4.428,4.428,0,0,1-.708-2.485h3.438a2.181,2.181,0,0,0,.591,1.685,2.793,2.793,0,0,0,1.919.542,2.206,2.206,0,0,0,1.343-.366A1.209,1.209,0,0,0,145.029,15.221ZM47.734,46H44.326V40.063H39.277V46H35.849V31.781h3.428v5.645h5.049V31.781h3.408ZM60.781,34.428H56.513V46H53.085V34.428H48.9V31.781H60.781Zm5.947-2.646L69.9,41.674l3.164-9.893h4.512V46H74.14V42.68l.332-6.8L71.035,46H68.769L65.322,35.873l.332,6.807V46H62.226V31.781ZM83.183,43.363H89.15V46H79.755V31.781h3.428ZM91.6,49.828l-1.66-.781.332-.664a5.416,5.416,0,0,0,.713-2.422V43.52h2.637l-.01,2.119a5.3,5.3,0,0,1-.576,2.285A5.806,5.806,0,0,1,91.6,49.828ZM106.63,31.781h3.418v9.756a4.665,4.665,0,0,1-.63,2.422,4.3,4.3,0,0,1-1.758,1.65,5.372,5.372,0,0,1-2.515.586,5.179,5.179,0,0,1-3.613-1.172,4.259,4.259,0,0,1-1.289-3.32h3.438a2.348,2.348,0,0,0,.337,1.416,1.334,1.334,0,0,0,1.128.439,1.276,1.276,0,0,0,1.1-.532,2.5,2.5,0,0,0,.386-1.489Zm12.91,10.439a1.408,1.408,0,0,0-.532-1.172,6.615,6.615,0,0,0-1.87-.869,17.941,17.941,0,0,1-2.187-.869q-2.764-1.357-2.764-3.73a3.345,3.345,0,0,1,.688-2.085,4.453,4.453,0,0,1,1.948-1.406,7.582,7.582,0,0,1,2.832-.5,6.632,6.632,0,0,1,2.749.547,4.352,4.352,0,0,1,1.89,1.558,4.068,4.068,0,0,1,.674,2.31H119.55a1.719,1.719,0,0,0-.532-1.348,2.075,2.075,0,0,0-1.44-.479,2.339,2.339,0,0,0-1.45.405,1.193,1.193,0,0,0,.054,2.021,7.389,7.389,0,0,0,2.061.918,12.623,12.623,0,0,1,2.422,1.021,4.07,4.07,0,0,1,2.3,3.662,3.472,3.472,0,0,1-1.406,2.93A6.255,6.255,0,0,1,117.7,46.2a7.653,7.653,0,0,1-3.13-.62,4.719,4.719,0,0,1-2.109-1.7,4.427,4.427,0,0,1-.708-2.485h3.438a2.181,2.181,0,0,0,.591,1.685,2.793,2.793,0,0,0,1.919.542,2.206,2.206,0,0,0,1.343-.366A1.209,1.209,0,0,0,119.54,42.221Zm17.227-3.037A8.385,8.385,0,0,1,136,42.865a5.7,5.7,0,0,1-2.192,2.466,6.1,6.1,0,0,1-3.237.864,6.191,6.191,0,0,1-3.223-.835,5.692,5.692,0,0,1-2.192-2.388,8.144,8.144,0,0,1-.825-3.564v-.8a8.422,8.422,0,0,1,.767-3.687,5.688,5.688,0,0,1,2.2-2.466,6.5,6.5,0,0,1,6.479-.01,5.79,5.79,0,0,1,2.2,2.446,8.18,8.18,0,0,1,.8,3.638Zm-3.486-.6a5.979,5.979,0,0,0-.708-3.218,2.271,2.271,0,0,0-2.026-1.1q-2.578,0-2.725,3.867l-.01,1.045a6.15,6.15,0,0,0,.693,3.213,2.268,2.268,0,0,0,2.061,1.123,2.24,2.24,0,0,0,2-1.1,5.982,5.982,0,0,0,.713-3.174ZM150.41,46H147l-5.039-8.848V46h-3.428V31.781h3.428l5.029,8.848V31.781h3.418Zm3.174,3.828-1.66-.781.332-.664a5.416,5.416,0,0,0,.713-2.422V43.52H155.6l-.01,2.119a5.3,5.3,0,0,1-.576,2.285A5.806,5.806,0,0,1,153.583,49.828ZM81.645,63.508l2.324-4.727h3.916l-3.975,7.051L87.993,73H84.038l-2.393-4.814L79.252,73H75.307l4.072-7.168-3.965-7.051h3.906Zm11.963-4.727,3.174,9.893,3.164-9.893h4.512V73H101.02V69.68l.332-6.8L97.914,73H95.649L92.2,62.873l.332,6.807V73H89.106V58.781Zm16.455,11.582h5.967V73h-9.395V58.781h3.428Z" transform="translate(590.859 800.321)" fill="#12263f"/>
    <path id="Trazado_632681" data-name="Trazado 632681" d="M17,0H146.221a17,17,0,0,1,17,17V57.183a17,17,0,0,1-17,17H17a17,17,0,0,1-17-17V17A17,17,0,0,1,17,0Z" transform="translate(821.779 804.527)" fill="#fecb2f"/>
    <path id="Trazado_632680" data-name="Trazado 632680" d="M17,0H124.221a17,17,0,0,1,17,17V57.183a17,17,0,0,1-17,17H17a17,17,0,0,1-17-17V17A17,17,0,0,1,17,0Z" transform="translate(1193.779 804.527)" fill="#fecb2f"/>
    <path id="Trazado_632682" data-name="Trazado 632682" d="M17,0H124.221a17,17,0,0,1,17,17V57.183a17,17,0,0,1-17,17H17a17,17,0,0,1-17-17V17A17,17,0,0,1,17,0Z" transform="translate(1040 804.527)" fill="#fecb2f"/>
    <path id="Trazado_632683" data-name="Trazado 632683" d="M41.1,15.418a4.96,4.96,0,0,1-2.083,1.274,8.984,8.984,0,0,1-3.006.483,5.36,5.36,0,0,1-4.017-1.538,6.226,6.226,0,0,1-1.608-4.28l-.009-1.107a7.637,7.637,0,0,1,.668-3.3,4.96,4.96,0,0,1,1.912-2.171,5.407,5.407,0,0,1,2.878-.76,5.669,5.669,0,0,1,3.713,1.094,4.637,4.637,0,0,1,1.542,3.265H38.117a2.426,2.426,0,0,0-.686-1.529,2.212,2.212,0,0,0-1.494-.457,2.013,2.013,0,0,0-1.793.984,5.256,5.256,0,0,0-.642,2.813v.773a5.145,5.145,0,0,0,.655,2.878,2.316,2.316,0,0,0,2.061.962,2.592,2.592,0,0,0,1.793-.536V12.28H35.867V10.162H41.1Zm9.729-3.85H45.974v3.059H51.7V17H42.889V4.2h8.833V6.585H45.974v2.7h4.852ZM63.183,6.585H59.342V17H56.257V6.585H52.487V4.2h10.7Zm-.062,13.86-1.494-.7.3-.6a4.874,4.874,0,0,0,.642-2.18v-2.2h2.373l-.009,1.907a4.767,4.767,0,0,1-.519,2.057A5.226,5.226,0,0,1,63.121,20.445Zm11.514-7.787V17H71.55V4.2h5.106a5.948,5.948,0,0,1,2.6.541A4.074,4.074,0,0,1,81,6.282a4.2,4.2,0,0,1,.62,2.263,3.7,3.7,0,0,1-1.34,2.993A5.561,5.561,0,0,1,76.6,12.658Zm0-2.382h2.021a1.906,1.906,0,0,0,1.367-.448,1.665,1.665,0,0,0,.47-1.266A2.059,2.059,0,0,0,78.01,7.13a1.712,1.712,0,0,0-1.318-.545H74.635Zm19.468.589a7.546,7.546,0,0,1-.694,3.313A5.132,5.132,0,0,1,91.435,16.4a5.494,5.494,0,0,1-2.914.778,5.572,5.572,0,0,1-2.9-.751,5.123,5.123,0,0,1-1.973-2.149,7.329,7.329,0,0,1-.743-3.208v-.721a7.58,7.58,0,0,1,.69-3.318A5.119,5.119,0,0,1,85.573,4.81,5.854,5.854,0,0,1,91.4,4.8,5.211,5.211,0,0,1,93.387,7a7.362,7.362,0,0,1,.716,3.274Zm-3.138-.536a5.381,5.381,0,0,0-.637-2.9A2.044,2.044,0,0,0,88.5,6.444q-2.32,0-2.452,3.48l-.009.94a5.535,5.535,0,0,0,.624,2.892,2.041,2.041,0,0,0,1.854,1.011,2.016,2.016,0,0,0,1.8-.993,5.383,5.383,0,0,0,.642-2.856Zm11.329,3.27a1.268,1.268,0,0,0-.479-1.055,5.954,5.954,0,0,0-1.683-.782,16.147,16.147,0,0,1-1.969-.782q-2.487-1.222-2.487-3.357a3.011,3.011,0,0,1,.62-1.876A4.008,4.008,0,0,1,98.049,4.48a6.823,6.823,0,0,1,2.549-.453,5.969,5.969,0,0,1,2.474.492,3.917,3.917,0,0,1,1.7,1.4A3.661,3.661,0,0,1,105.379,8H102.3a1.547,1.547,0,0,0-.479-1.213,1.867,1.867,0,0,0-1.3-.431,2.106,2.106,0,0,0-1.305.365,1.074,1.074,0,0,0,.048,1.819,6.65,6.65,0,0,0,1.854.826,11.36,11.36,0,0,1,2.18.918,3.663,3.663,0,0,1,2.074,3.3,3.125,3.125,0,0,1-1.266,2.637,5.629,5.629,0,0,1-3.472.958,6.888,6.888,0,0,1-2.817-.558,4.247,4.247,0,0,1-1.9-1.529,3.985,3.985,0,0,1-.637-2.237h3.094a1.963,1.963,0,0,0,.532,1.516,2.513,2.513,0,0,0,1.727.488,1.985,1.985,0,0,0,1.208-.33A1.088,1.088,0,0,0,102.294,13.6Zm14.713-7.014h-3.841V17h-3.085V6.585h-3.771V4.2h10.7Zm-.062,13.86-1.494-.7.3-.6a4.874,4.874,0,0,0,.642-2.18v-2.2h2.373l-.009,1.907a4.767,4.767,0,0,1-.519,2.057A5.226,5.226,0,0,1,116.946,20.445Zm11.514-7.787V17h-3.085V4.2h5.106a5.948,5.948,0,0,1,2.6.541,4.074,4.074,0,0,1,1.749,1.538,4.2,4.2,0,0,1,.62,2.263,3.7,3.7,0,0,1-1.34,2.993,5.561,5.561,0,0,1-3.678,1.121Zm0-2.382h2.021a1.906,1.906,0,0,0,1.367-.448,1.665,1.665,0,0,0,.47-1.266,2.059,2.059,0,0,0-.483-1.433,1.712,1.712,0,0,0-1.318-.545h-2.057ZM147.127,4.2v8.376a4.814,4.814,0,0,1-.606,2.465,3.929,3.929,0,0,1-1.74,1.586,6.131,6.131,0,0,1-2.681.545,5.3,5.3,0,0,1-3.683-1.213,4.326,4.326,0,0,1-1.371-3.322V4.2h3.1v8.5q.053,2.1,1.951,2.1a1.889,1.889,0,0,0,1.45-.527,2.465,2.465,0,0,0,.492-1.714V4.2ZM159.1,6.585h-3.841V17h-3.085V6.585H148.4V4.2h10.7Zm-.062,13.86-1.494-.7.3-.6a4.874,4.874,0,0,0,.642-2.18v-2.2h2.373l-.009,1.907a4.767,4.767,0,0,1-.519,2.057A5.226,5.226,0,0,1,159.037,20.445ZM65.235,42V29.2h4.122a6.064,6.064,0,0,1,3.05.769,5.406,5.406,0,0,1,2.114,2.171,6.554,6.554,0,0,1,.769,3.142v.589a6.592,6.592,0,0,1-.743,3.151,5.429,5.429,0,0,1-2.092,2.18,5.93,5.93,0,0,1-3.01.8ZM68.32,31.585v8.042h1.072a2.4,2.4,0,0,0,2.039-.945,4.63,4.63,0,0,0,.712-2.808V35.32a4.592,4.592,0,0,0-.712-2.795,2.442,2.442,0,0,0-2.074-.94Zm16.488,4.983H79.957v3.059h5.73V42H76.872V29.2H85.7v2.382H79.957v2.7h4.852Zm5.221,3.059H95.4V42H86.944V29.2h3.085Zm14.607-3.059H99.785v3.059h5.73V42H96.7V29.2h8.833v2.382H99.785v2.7h4.852Zm12.357-4.983h-3.841V42h-3.085V31.585H106.3V29.2h10.7Zm9.237,4.983H121.38v3.059h5.73V42h-8.815V29.2h8.833v2.382H121.38v2.7h4.852Z" transform="translate(808 819.526)" fill="#12263f"/>
    <path id="Trazado_632684" data-name="Trazado 632684" d="M30.779,13.6a1.268,1.268,0,0,0-.479-1.055,5.954,5.954,0,0,0-1.683-.782,16.147,16.147,0,0,1-1.969-.782q-2.487-1.222-2.487-3.357a3.011,3.011,0,0,1,.62-1.876A4.008,4.008,0,0,1,26.534,4.48a6.823,6.823,0,0,1,2.549-.453,5.969,5.969,0,0,1,2.474.492,3.917,3.917,0,0,1,1.7,1.4A3.661,3.661,0,0,1,33.864,8H30.788a1.547,1.547,0,0,0-.479-1.213,1.867,1.867,0,0,0-1.3-.431,2.106,2.106,0,0,0-1.305.365,1.074,1.074,0,0,0,.048,1.819,6.65,6.65,0,0,0,1.854.826,11.36,11.36,0,0,1,2.18.918,3.663,3.663,0,0,1,2.074,3.3A3.125,3.125,0,0,1,32.6,16.218a5.629,5.629,0,0,1-3.472.958,6.888,6.888,0,0,1-2.817-.558,4.247,4.247,0,0,1-1.9-1.529,3.985,3.985,0,0,1-.637-2.237h3.094a1.963,1.963,0,0,0,.532,1.516,2.513,2.513,0,0,0,1.727.488,1.985,1.985,0,0,0,1.208-.33A1.088,1.088,0,0,0,30.779,13.6Zm15.5-2.733a7.546,7.546,0,0,1-.694,3.313A5.132,5.132,0,0,1,43.616,16.4a5.494,5.494,0,0,1-2.914.778,5.572,5.572,0,0,1-2.9-.751,5.123,5.123,0,0,1-1.973-2.149,7.329,7.329,0,0,1-.743-3.208v-.721a7.58,7.58,0,0,1,.69-3.318A5.119,5.119,0,0,1,37.753,4.81,5.854,5.854,0,0,1,43.585,4.8,5.211,5.211,0,0,1,45.567,7a7.362,7.362,0,0,1,.716,3.274Zm-3.138-.536a5.381,5.381,0,0,0-.637-2.9,2.044,2.044,0,0,0-1.824-.989q-2.32,0-2.452,3.48l-.009.94a5.535,5.535,0,0,0,.624,2.892A2.041,2.041,0,0,0,40.7,14.768a2.016,2.016,0,0,0,1.8-.993,5.383,5.383,0,0,0,.642-2.856Zm11.813,4.28H50.73L49.992,17H46.7L51.389,4.2h2.9L59.018,17H55.7Zm-3.489-2.382H54.22L52.84,7.789Zm11.566.431V17H59.95V4.2h5.106a5.948,5.948,0,0,1,2.6.541A4.074,4.074,0,0,1,69.4,6.282a4.2,4.2,0,0,1,.62,2.263,3.7,3.7,0,0,1-1.34,2.993A5.561,5.561,0,0,1,65,12.658Zm0-2.382h2.021a1.906,1.906,0,0,0,1.367-.448,1.665,1.665,0,0,0,.47-1.266A2.059,2.059,0,0,0,66.41,7.13a1.712,1.712,0,0,0-1.318-.545H63.035ZM81.7,4.2v8.376a4.814,4.814,0,0,1-.606,2.465,3.929,3.929,0,0,1-1.74,1.586,6.131,6.131,0,0,1-2.681.545,5.3,5.3,0,0,1-3.683-1.213,4.326,4.326,0,0,1-1.371-3.322V4.2h3.1v8.5q.053,2.1,1.951,2.1a1.889,1.889,0,0,0,1.45-.527,2.465,2.465,0,0,0,.492-1.714V4.2ZM86.915,17H83.839V4.2h3.076Z" transform="translate(1208.779 830.526)" fill="#12263f"/>
    <path id="Trazado_632685" data-name="Trazado 632685" d="M15.908,12.658V17H12.823V4.2h5.106a5.948,5.948,0,0,1,2.6.541,4.074,4.074,0,0,1,1.749,1.538,4.2,4.2,0,0,1,.62,2.263,3.7,3.7,0,0,1-1.34,2.993,5.561,5.561,0,0,1-3.678,1.121Zm0-2.382h2.021A1.906,1.906,0,0,0,19.3,9.828a1.665,1.665,0,0,0,.47-1.266,2.059,2.059,0,0,0-.483-1.433,1.712,1.712,0,0,0-1.318-.545H15.908Zm19.468.589a7.546,7.546,0,0,1-.694,3.313A5.132,5.132,0,0,1,32.708,16.4a5.494,5.494,0,0,1-2.914.778,5.572,5.572,0,0,1-2.9-.751,5.123,5.123,0,0,1-1.973-2.149,7.329,7.329,0,0,1-.743-3.208v-.721a7.58,7.58,0,0,1,.69-3.318A5.119,5.119,0,0,1,26.846,4.81,5.854,5.854,0,0,1,32.678,4.8,5.211,5.211,0,0,1,34.659,7a7.362,7.362,0,0,1,.716,3.274Zm-3.138-.536a5.381,5.381,0,0,0-.637-2.9,2.044,2.044,0,0,0-1.824-.989q-2.32,0-2.452,3.48l-.009.94a5.535,5.535,0,0,0,.624,2.892,2.041,2.041,0,0,0,1.854,1.011,2.016,2.016,0,0,0,1.8-.993,5.383,5.383,0,0,0,.642-2.856ZM43.567,13.6a1.268,1.268,0,0,0-.479-1.055,5.954,5.954,0,0,0-1.683-.782,16.147,16.147,0,0,1-1.969-.782q-2.487-1.222-2.487-3.357a3.011,3.011,0,0,1,.62-1.876A4.008,4.008,0,0,1,39.322,4.48a6.823,6.823,0,0,1,2.549-.453,5.969,5.969,0,0,1,2.474.492,3.917,3.917,0,0,1,1.7,1.4A3.661,3.661,0,0,1,46.652,8H43.576A1.547,1.547,0,0,0,43.1,6.787a1.867,1.867,0,0,0-1.3-.431,2.106,2.106,0,0,0-1.305.365,1.074,1.074,0,0,0,.048,1.819,6.65,6.65,0,0,0,1.854.826,11.36,11.36,0,0,1,2.18.918,3.663,3.663,0,0,1,2.074,3.3,3.125,3.125,0,0,1-1.266,2.637,5.629,5.629,0,0,1-3.472.958,6.888,6.888,0,0,1-2.817-.558,4.247,4.247,0,0,1-1.9-1.529,3.985,3.985,0,0,1-.637-2.237h3.094a1.963,1.963,0,0,0,.532,1.516,2.513,2.513,0,0,0,1.727.488,1.985,1.985,0,0,0,1.208-.33A1.088,1.088,0,0,0,43.567,13.6ZM58.28,6.585H54.439V17H51.354V6.585H47.584V4.2h10.7ZM63.633,4.2l2.856,8.9,2.848-8.9H73.4V17H70.3V14.012l.3-6.117L67.509,17H65.47l-3.1-9.114.3,6.126V17H59.581V4.2ZM82.784,14.609H78.556L77.818,17h-3.3L79.216,4.2h2.9L86.845,17H83.531Zm-3.489-2.382h2.751l-1.38-4.438ZM98.464,17H95.4L90.861,9.037V17H87.776V4.2h3.085l4.526,7.963V4.2h3.076Z" transform="translate(1055 830.526)" fill="#12263f"/>
    <path id="Trazado_183765" data-name="Trazado 183765" d="M0,0V22.707H176.44V0" transform="translate(1270.485 786.12) rotate(180)" fill="none" stroke="#707070" stroke-width="1"/>
    <g id="Trazado_632686" data-name="Trazado 632686" transform="translate(1278.577 793.229) rotate(180)" fill="#707070">
      <path d="M 15.3069896697998 13.12977981567383 L 0.8783723711967468 13.12977981567383 L 8.092680931091309 0.9793622493743896 L 15.3069896697998 13.12977981567383 Z" stroke="none"/>
      <path d="M 8.092680931091309 1.958707809448242 L 1.756733894348145 12.62977981567383 L 14.42862796783447 12.62977981567383 L 8.092680931091309 1.958707809448242 M 8.092680931091309 -9.5367431640625e-07 L 16.18536186218262 13.62977981567383 L 0 13.62977981567383 L 8.092680931091309 -9.5367431640625e-07 Z" stroke="none" fill="#707070"/>
    </g>
    <g id="Trazado_632687" data-name="Trazado 632687" transform="translate(1101.351 793.229) rotate(180)" fill="#707070">
      <path d="M 15.3069896697998 13.12977981567383 L 0.8783723711967468 13.12977981567383 L 8.092680931091309 0.9793622493743896 L 15.3069896697998 13.12977981567383 Z" stroke="none"/>
      <path d="M 8.092680931091309 1.958707809448242 L 1.756733894348145 12.62977981567383 L 14.42862796783447 12.62977981567383 L 8.092680931091309 1.958707809448242 M 8.092680931091309 -9.5367431640625e-07 L 16.18536186218262 13.62977981567383 L 0 13.62977981567383 L 8.092680931091309 -9.5367431640625e-07 Z" stroke="none" fill="#707070"/>
    </g>
    <path id="Trazado_183765-2" data-name="Trazado 183765" d="M0,0V22.707H379.671V0" transform="translate(689.909 776.211) rotate(180)" fill="none" stroke="#707070" stroke-width="1"/>
    <g id="Trazado_632692" data-name="Trazado 632692" transform="translate(698 783.319) rotate(180)" fill="#707070">
      <path d="M 15.3069896697998 13.12977981567383 L 0.8783723711967468 13.12977981567383 L 8.092680931091309 0.9793622493743896 L 15.3069896697998 13.12977981567383 Z" stroke="none"/>
      <path d="M 8.092680931091309 1.958707809448242 L 1.756733894348145 12.62977981567383 L 14.42862796783447 12.62977981567383 L 8.092680931091309 1.958707809448242 M 8.092680931091309 -9.5367431640625e-07 L 16.18536186218262 13.62977981567383 L 0 13.62977981567383 L 8.092680931091309 -9.5367431640625e-07 Z" stroke="none" fill="#707070"/>
    </g>
    <g id="Trazado_632693" data-name="Trazado 632693" transform="translate(318.33 783.319) rotate(180)" fill="#707070">
      <path d="M 15.3069896697998 13.12977981567383 L 0.8783723711967468 13.12977981567383 L 8.092680931091309 0.9793622493743896 L 15.3069896697998 13.12977981567383 Z" stroke="none"/>
      <path d="M 8.092680931091309 1.958707809448242 L 1.756733894348145 12.62977981567383 L 14.42862796783447 12.62977981567383 L 8.092680931091309 1.958707809448242 M 8.092680931091309 -9.5367431640625e-07 L 16.18536186218262 13.62977981567383 L 0 13.62977981567383 L 8.092680931091309 -9.5367431640625e-07 Z" stroke="none" fill="#707070"/>
    </g>
    <g id="Trazado_632694" data-name="Trazado 632694" transform="translate(431.33 783.319) rotate(180)" fill="#707070">
      <path d="M 15.3069896697998 13.12977981567383 L 0.8783723711967468 13.12977981567383 L 8.092680931091309 0.9793622493743896 L 15.3069896697998 13.12977981567383 Z" stroke="none"/>
      <path d="M 8.092680931091309 1.958707809448242 L 1.756733894348145 12.62977981567383 L 14.42862796783447 12.62977981567383 L 8.092680931091309 1.958707809448242 M 8.092680931091309 -9.5367431640625e-07 L 16.18536186218262 13.62977981567383 L 0 13.62977981567383 L 8.092680931091309 -9.5367431640625e-07 Z" stroke="none" fill="#707070"/>
    </g>
    <g id="Trazado_632695" data-name="Trazado 632695" transform="translate(547.33 783.319) rotate(180)" fill="#707070">
      <path d="M 15.3069896697998 13.12977981567383 L 0.8783723711967468 13.12977981567383 L 8.092680931091309 0.9793622493743896 L 15.3069896697998 13.12977981567383 Z" stroke="none"/>
      <path d="M 8.092680931091309 1.958707809448242 L 1.756733894348145 12.62977981567383 L 14.42862796783447 12.62977981567383 L 8.092680931091309 1.958707809448242 M 8.092680931091309 -9.5367431640625e-07 L 16.18536186218262 13.62977981567383 L 0 13.62977981567383 L 8.092680931091309 -9.5367431640625e-07 Z" stroke="none" fill="#707070"/>
    </g>
    <g id="Trazado_632696" data-name="Trazado 632696" transform="translate(516.259 742.318) rotate(180)" fill="#707070">
      <path d="M 15.3069896697998 13.12977981567383 L 0.8783723711967468 13.12977981567383 L 8.092680931091309 0.9793622493743896 L 15.3069896697998 13.12977981567383 Z" stroke="none"/>
      <path d="M 8.092680931091309 1.958707809448242 L 1.756733894348145 12.62977981567383 L 14.42862796783447 12.62977981567383 L 8.092680931091309 1.958707809448242 M 8.092680931091309 -9.5367431640625e-07 L 16.18536186218262 13.62977981567383 L 0 13.62977981567383 L 8.092680931091309 -9.5367431640625e-07 Z" stroke="none" fill="#707070"/>
    </g>
    <path id="Trazado_632635" data-name="Trazado 632635" d="M-12347.53-9415.408v17.3" transform="translate(12771 10168.913)" fill="none" stroke="#707070" stroke-width="1"/>
    <path id="Trazado_632636" data-name="Trazado 632636" d="M-12347.53-9415.408v17.3" transform="translate(12886.391 10168.913)" fill="none" stroke="#707070" stroke-width="1"/>
    <path id="Trazado_632637" data-name="Trazado 632637" d="M-12347.53-9415.407v35.016" transform="translate(12855.938 10109.082)" fill="none" stroke="#707070" stroke-width="1"/>
    <g id="Trazado_632688" data-name="Trazado 632688" transform="translate(895 795.128) rotate(180)" fill="#707070">
      <path d="M 15.3069896697998 13.12977981567383 L 0.8783723711967468 13.12977981567383 L 8.092680931091309 0.9793622493743896 L 15.3069896697998 13.12977981567383 Z" stroke="none"/>
      <path d="M 8.092680931091309 1.958707809448242 L 1.756733894348145 12.62977981567383 L 14.42862796783447 12.62977981567383 L 8.092680931091309 1.958707809448242 M 8.092680931091309 -9.5367431640625e-07 L 16.18536186218262 13.62977981567383 L 0 13.62977981567383 L 8.092680931091309 -9.5367431640625e-07 Z" stroke="none" fill="#707070"/>
    </g>
    <path id="Trazado_632638" data-name="Trazado 632638" d="M-12347.53-9415.407v87.826" transform="translate(13234.678 10109.081)" fill="none" stroke="#707070" stroke-width="1"/>
    <g id="Trazado_632690" data-name="Trazado 632690" transform="translate(1186 756.128) rotate(180)" fill="#707070">
      <path d="M 15.3069896697998 13.12977981567383 L 0.8783723711967468 13.12977981567383 L 8.092680931091309 0.9793622493743896 L 15.3069896697998 13.12977981567383 Z" stroke="none"/>
      <path d="M 8.092680931091309 1.958707809448242 L 1.756733894348145 12.62977981567383 L 14.42862796783447 12.62977981567383 L 8.092680931091309 1.958707809448242 M 8.092680931091309 -9.5367431640625e-07 L 16.18536186218262 13.62977981567383 L 0 13.62977981567383 L 8.092680931091309 -9.5367431640625e-07 Z" stroke="none" fill="#707070"/>
    </g>
    <path id="Trazado_632639" data-name="Trazado 632639" d="M-12347.53-9415.407v87.826" transform="translate(13525.678 10070.081)" fill="none" stroke="#707070" stroke-width="1"/>
    <path id="Trazado_632698" data-name="Trazado 632698" d="M17,0H204.916a17,17,0,0,1,17,17V89.443a17,17,0,0,1-17,17H17a17,17,0,0,1-17-17V17A17,17,0,0,1,17,0Z" transform="translate(1070.913 587.23)" fill="#0b5999"/>
    <path id="Trazado_632699" data-name="Trazado 632699" d="M38.663,7.006H34.609V18H31.352V7.006h-3.98V4.492H38.663Zm5.26,11.179a5.16,5.16,0,0,1-3.739-1.378,4.757,4.757,0,0,1-1.429-3.586v-.26a6.165,6.165,0,0,1,.571-2.718,4.175,4.175,0,0,1,1.665-1.823,5.027,5.027,0,0,1,2.6-.645,4.345,4.345,0,0,1,3.34,1.313,5.159,5.159,0,0,1,1.225,3.66v1.215H41.938a2.253,2.253,0,0,0,.733,1.327,2.181,2.181,0,0,0,1.466.482,2.81,2.81,0,0,0,2.319-1.039l1.429,1.688a3.994,3.994,0,0,1-1.656,1.285A5.6,5.6,0,0,1,43.923,18.186Zm-.353-8q-1.373,0-1.633,1.818h3.154v-.241a1.549,1.549,0,0,0-.38-1.164A1.514,1.514,0,0,0,43.57,10.188Zm10.084,5.585a1.391,1.391,0,0,0,1.021-.357,1.31,1.31,0,0,0,.353-1H57.96a3.47,3.47,0,0,1-1.183,2.709,4.4,4.4,0,0,1-3.048,1.058,4.455,4.455,0,0,1-3.451-1.373,5.41,5.41,0,0,1-1.262-3.8v-.13a6.114,6.114,0,0,1,.561-2.686A4.087,4.087,0,0,1,51.2,8.4a4.827,4.827,0,0,1,2.5-.626,4.344,4.344,0,0,1,3.108,1.085A3.85,3.85,0,0,1,57.96,11.8H55.028a1.716,1.716,0,0,0-.38-1.2,1.313,1.313,0,0,0-1.021-.417q-1.215,0-1.419,1.549a10.933,10.933,0,0,0-.065,1.354,4.294,4.294,0,0,0,.362,2.1A1.253,1.253,0,0,0,53.655,15.773Zm8.5-7.812.1,1.178a3.4,3.4,0,0,1,2.867-1.364,2.864,2.864,0,0,1,2.343.937,4.461,4.461,0,0,1,.8,2.82V18H65.131V11.664a1.694,1.694,0,0,0-.306-1.118,1.416,1.416,0,0,0-1.113-.357,1.491,1.491,0,0,0-1.364.724V18H59.221V7.962Zm7.45,4.926a5.925,5.925,0,0,1,.584-2.677,4.18,4.18,0,0,1,1.679-1.8,5.057,5.057,0,0,1,2.57-.631,4.616,4.616,0,0,1,3.553,1.4,5.358,5.358,0,0,1,1.3,3.8v.111a5.2,5.2,0,0,1-1.3,3.725,4.628,4.628,0,0,1-3.53,1.378A4.681,4.681,0,0,1,71.013,16.9a5.026,5.026,0,0,1-1.4-3.484Zm3.126.195a3.735,3.735,0,0,0,.436,2.041,1.453,1.453,0,0,0,1.29.649q1.67,0,1.707-2.57v-.315q0-2.7-1.726-2.7-1.568,0-1.7,2.329ZM83.964,18H80.828V3.75h3.136Zm1.531-5.112a5.925,5.925,0,0,1,.584-2.677,4.18,4.18,0,0,1,1.679-1.8,5.057,5.057,0,0,1,2.57-.631,4.616,4.616,0,0,1,3.553,1.4,5.358,5.358,0,0,1,1.3,3.8v.111a5.2,5.2,0,0,1-1.3,3.725,4.628,4.628,0,0,1-3.53,1.378A4.681,4.681,0,0,1,86.9,16.9a5.026,5.026,0,0,1-1.4-3.484Zm3.126.195a3.735,3.735,0,0,0,.436,2.041,1.453,1.453,0,0,0,1.29.649q1.67,0,1.707-2.57v-.315q0-2.7-1.726-2.7-1.568,0-1.7,2.329Zm7.57-.176a6.778,6.778,0,0,1,.5-2.69,4.033,4.033,0,0,1,1.438-1.8,3.791,3.791,0,0,1,2.18-.635,3.014,3.014,0,0,1,2.449,1.058l.111-.872h2.839V17.62a4.232,4.232,0,0,1-.617,2.305,3.959,3.959,0,0,1-1.786,1.5,6.564,6.564,0,0,1-2.709.524,5.663,5.663,0,0,1-2.138-.417,3.86,3.86,0,0,1-1.582-1.085l1.308-1.837a2.867,2.867,0,0,0,2.3,1.03,1.862,1.862,0,0,0,2.078-2.134v-.315a2.936,2.936,0,0,1-2.273.993,3.628,3.628,0,0,1-2.969-1.406,5.823,5.823,0,0,1-1.132-3.762Zm3.136.195a3.571,3.571,0,0,0,.464,1.953,1.464,1.464,0,0,0,1.3.719,1.661,1.661,0,0,0,1.475-.677V10.875a1.619,1.619,0,0,0-1.457-.687,1.473,1.473,0,0,0-1.308.747A4.072,4.072,0,0,0,99.327,13.1ZM110.9,18h-3.145V7.962H110.9ZM109.727,3.936h3.3l-2.579,2.913-2.551,0ZM118.559,18a3.53,3.53,0,0,1-.3-.9,2.907,2.907,0,0,1-2.412,1.085,3.562,3.562,0,0,1-2.412-.858,2.732,2.732,0,0,1-.993-2.157,2.807,2.807,0,0,1,1.206-2.468,6.144,6.144,0,0,1,3.507-.835h.965v-.531q0-1.389-1.2-1.389a.978.978,0,0,0-1.113,1.1h-3.126a2.8,2.8,0,0,1,1.239-2.363,5.2,5.2,0,0,1,3.159-.908,4.563,4.563,0,0,1,3.034.937,3.258,3.258,0,0,1,1.141,2.57v4.444a4.551,4.551,0,0,0,.427,2.115V18ZM116.6,15.959a1.744,1.744,0,0,0,.969-.25,1.57,1.57,0,0,0,.552-.566v-1.6h-.909q-1.633,0-1.633,1.466a.9.9,0,0,0,.288.691A1.041,1.041,0,0,0,116.6,15.959Zm20.438-2.9a6.053,6.053,0,0,1-1.053,3.734,3.376,3.376,0,0,1-2.844,1.4,2.894,2.894,0,0,1-2.273-1.011v4.685h-3.126V7.962h2.922l.093.928a2.894,2.894,0,0,1,2.366-1.113,3.4,3.4,0,0,1,2.885,1.368,6.128,6.128,0,0,1,1.03,3.762Zm-3.126-.195q0-2.672-1.559-2.672a1.471,1.471,0,0,0-1.484.8v3.952a1.519,1.519,0,0,0,1.5.835q1.494,0,1.54-2.579ZM144.072,18a3.53,3.53,0,0,1-.3-.9,2.907,2.907,0,0,1-2.412,1.085,3.562,3.562,0,0,1-2.412-.858,2.731,2.731,0,0,1-.993-2.157,2.807,2.807,0,0,1,1.206-2.468,6.144,6.144,0,0,1,3.507-.835h.965v-.531q0-1.389-1.2-1.389a.978.978,0,0,0-1.113,1.1H138.2a2.8,2.8,0,0,1,1.239-2.363,5.2,5.2,0,0,1,3.159-.908,4.563,4.563,0,0,1,3.034.937,3.258,3.258,0,0,1,1.141,2.57v4.444a4.551,4.551,0,0,0,.427,2.115V18Zm-1.958-2.041a1.744,1.744,0,0,0,.969-.25,1.57,1.57,0,0,0,.552-.566v-1.6h-.909q-1.633,0-1.633,1.466a.9.9,0,0,0,.288.691A1.041,1.041,0,0,0,142.114,15.959Zm12.459-5.167-1.03-.074a1.85,1.85,0,0,0-1.893.928V18h-3.126V7.962h2.932l.1,1.29a2.421,2.421,0,0,1,2.2-1.475,3.049,3.049,0,0,1,.872.111Zm6.5,7.208a3.53,3.53,0,0,1-.3-.9,2.907,2.907,0,0,1-2.412,1.085,3.562,3.562,0,0,1-2.412-.858,2.731,2.731,0,0,1-.993-2.157A2.807,2.807,0,0,1,156.17,12.7a6.144,6.144,0,0,1,3.507-.835h.965v-.531q0-1.389-1.2-1.389a.978.978,0,0,0-1.113,1.1H155.2a2.8,2.8,0,0,1,1.239-2.363,5.2,5.2,0,0,1,3.159-.908,4.563,4.563,0,0,1,3.034.937,3.258,3.258,0,0,1,1.141,2.57v4.444a4.551,4.551,0,0,0,.427,2.115V18Zm-1.958-2.041a1.744,1.744,0,0,0,.969-.25,1.57,1.57,0,0,0,.552-.566v-1.6h-.909q-1.633,0-1.633,1.466a.9.9,0,0,0,.288.691A1.041,1.041,0,0,0,159.12,15.959ZM22.952,42.773a1.391,1.391,0,0,0,1.021-.357,1.31,1.31,0,0,0,.353-1h2.932a3.47,3.47,0,0,1-1.183,2.709,4.4,4.4,0,0,1-3.048,1.058,4.455,4.455,0,0,1-3.451-1.373,5.41,5.41,0,0,1-1.262-3.8v-.13a6.114,6.114,0,0,1,.561-2.686A4.087,4.087,0,0,1,20.493,35.4a4.827,4.827,0,0,1,2.5-.626,4.344,4.344,0,0,1,3.108,1.085,3.85,3.85,0,0,1,1.15,2.941H24.325a1.716,1.716,0,0,0-.38-1.2,1.313,1.313,0,0,0-1.021-.417q-1.215,0-1.419,1.549a10.932,10.932,0,0,0-.065,1.354,4.294,4.294,0,0,0,.362,2.1A1.253,1.253,0,0,0,22.952,42.773Zm5.232-2.885a5.925,5.925,0,0,1,.584-2.677,4.18,4.18,0,0,1,1.679-1.8,5.057,5.057,0,0,1,2.57-.631,4.616,4.616,0,0,1,3.553,1.4,5.358,5.358,0,0,1,1.3,3.8v.111a5.2,5.2,0,0,1-1.3,3.725,4.628,4.628,0,0,1-3.53,1.378A4.681,4.681,0,0,1,29.594,43.9a5.026,5.026,0,0,1-1.4-3.484Zm3.126.195a3.735,3.735,0,0,0,.436,2.041,1.453,1.453,0,0,0,1.29.649q1.67,0,1.707-2.57v-.315q0-2.7-1.726-2.7-1.568,0-1.7,2.329Zm10.808-5.121.1,1.178a3.4,3.4,0,0,1,2.867-1.364,2.864,2.864,0,0,1,2.343.937,4.461,4.461,0,0,1,.8,2.82V45H45.1V38.664a1.694,1.694,0,0,0-.306-1.118,1.416,1.416,0,0,0-1.113-.357,1.491,1.491,0,0,0-1.364.724V45H39.187V34.962Zm13.1,7.218a.722.722,0,0,0-.417-.64,6.35,6.35,0,0,0-1.586-.5,7.234,7.234,0,0,1-1.93-.682,3.232,3.232,0,0,1-1.16-1.025,2.448,2.448,0,0,1-.4-1.382,2.774,2.774,0,0,1,1.141-2.278,4.7,4.7,0,0,1,2.987-.9,5.208,5.208,0,0,1,3.191.9,2.814,2.814,0,0,1,1.206,2.366H55.116q0-1.206-1.271-1.206a1.26,1.26,0,0,0-.826.274.847.847,0,0,0-.334.682.778.778,0,0,0,.408.677,3.857,3.857,0,0,0,1.3.427,11.264,11.264,0,0,1,1.573.4,2.857,2.857,0,0,1,2.264,2.792,2.629,2.629,0,0,1-1.22,2.236,5.35,5.35,0,0,1-3.159.863,5.46,5.46,0,0,1-2.3-.464,3.847,3.847,0,0,1-1.577-1.262,2.857,2.857,0,0,1-.566-1.679h2.922A1.208,1.208,0,0,0,52.8,42.8a1.908,1.908,0,0,0,1.141.32,1.5,1.5,0,0,0,.96-.26A.831.831,0,0,0,55.218,42.18Zm10.456,1.735a3.223,3.223,0,0,1-2.681,1.271,3.161,3.161,0,0,1-2.5-.96,4.038,4.038,0,0,1-.849-2.76v-6.5H62.77v6.522a1.124,1.124,0,0,0,1.252,1.29A1.634,1.634,0,0,0,65.553,42V34.962H68.7V45H65.767Zm7.691-8.953.1,1.178a3.451,3.451,0,0,1,2.867-1.364,2.541,2.541,0,0,1,2.57,1.512,3.341,3.341,0,0,1,2.95-1.512q3.052,0,3.136,3.692V45H81.853V38.664a1.914,1.914,0,0,0-.26-1.123,1.106,1.106,0,0,0-.946-.353,1.481,1.481,0,0,0-1.382.826l.009.13V45H76.139V38.682a2.011,2.011,0,0,0-.25-1.141,1.1,1.1,0,0,0-.956-.353,1.5,1.5,0,0,0-1.373.826V45H70.433V34.962ZM90.073,45H86.937V34.962h3.136ZM86.752,32.374a1.4,1.4,0,0,1,.482-1.095,2.051,2.051,0,0,1,2.5,0,1.483,1.483,0,0,1,0,2.189,2.051,2.051,0,0,1-2.5,0A1.4,1.4,0,0,1,86.752,32.374ZM98.07,37.792l-1.03-.074a1.85,1.85,0,0,0-1.893.928V45H92.021V34.962h2.932l.1,1.29a2.421,2.421,0,0,1,2.2-1.475,3.049,3.049,0,0,1,.872.111Zm9.871,2.83,1.67-5.659h3.349l-4.091,11.717-.176.427a3.108,3.108,0,0,1-3.08,1.948,4.9,4.9,0,0,1-1.29-.185V46.642h.408a2.138,2.138,0,0,0,1.007-.19,1.155,1.155,0,0,0,.515-.682l.25-.668-3.488-10.139h3.34Zm19.881-.566a6.053,6.053,0,0,1-1.053,3.734,3.376,3.376,0,0,1-2.844,1.4,2.894,2.894,0,0,1-2.273-1.011v4.685h-3.126v-13.9h2.922l.093.928a2.894,2.894,0,0,1,2.366-1.113,3.4,3.4,0,0,1,2.885,1.368,6.128,6.128,0,0,1,1.03,3.762ZM124.7,39.86q0-2.672-1.559-2.672a1.471,1.471,0,0,0-1.484.8v3.952a1.519,1.519,0,0,0,1.5.835q1.494,0,1.54-2.579Zm10.576-2.069-1.03-.074a1.85,1.85,0,0,0-1.893.928V45h-3.126V34.962h2.932l.1,1.29a2.421,2.421,0,0,1,2.2-1.475,3.049,3.049,0,0,1,.872.111Zm.4,2.1a5.925,5.925,0,0,1,.584-2.677,4.18,4.18,0,0,1,1.679-1.8,5.057,5.057,0,0,1,2.57-.631,4.616,4.616,0,0,1,3.553,1.4,5.358,5.358,0,0,1,1.3,3.8v.111a5.2,5.2,0,0,1-1.3,3.725,4.628,4.628,0,0,1-3.53,1.378,4.681,4.681,0,0,1-3.442-1.285,5.026,5.026,0,0,1-1.4-3.484Zm3.126.195a3.735,3.735,0,0,0,.436,2.041,1.453,1.453,0,0,0,1.29.649q1.67,0,1.707-2.57v-.315q0-2.7-1.726-2.7-1.568,0-1.7,2.329Zm17.256-.019a6.118,6.118,0,0,1-1.021,3.794,3.418,3.418,0,0,1-2.876,1.327,2.966,2.966,0,0,1-2.468-1.215l-.13,1.03h-2.8V30.75h3.126v5.019a2.862,2.862,0,0,1,2.254-.993,3.419,3.419,0,0,1,2.895,1.345,6.15,6.15,0,0,1,1.021,3.785Zm-3.136-.2a4.081,4.081,0,0,0-.385-2.061,1.3,1.3,0,0,0-1.183-.616,1.5,1.5,0,0,0-1.466.806v3.983a1.505,1.505,0,0,0,1.484.8,1.328,1.328,0,0,0,1.4-1.074A7.715,7.715,0,0,0,152.918,39.865ZM163.086,45a3.53,3.53,0,0,1-.3-.9,2.907,2.907,0,0,1-2.412,1.085,3.562,3.562,0,0,1-2.412-.858,2.731,2.731,0,0,1-.993-2.157,2.807,2.807,0,0,1,1.206-2.468,6.144,6.144,0,0,1,3.507-.835h.965v-.531q0-1.389-1.2-1.389a.978.978,0,0,0-1.113,1.1h-3.126a2.8,2.8,0,0,1,1.239-2.363,5.2,5.2,0,0,1,3.159-.908,4.563,4.563,0,0,1,3.034.937,3.258,3.258,0,0,1,1.141,2.57v4.444a4.551,4.551,0,0,0,.427,2.115V45Zm-1.958-2.041a1.744,1.744,0,0,0,.969-.25,1.57,1.57,0,0,0,.552-.566v-1.6h-.909q-1.633,0-1.633,1.466a.9.9,0,0,0,.288.691A1.041,1.041,0,0,0,161.128,42.959Zm12.459-5.167-1.03-.074a1.85,1.85,0,0,0-1.893.928V45h-3.126V34.962h2.932l.1,1.29a2.421,2.421,0,0,1,2.2-1.475,3.049,3.049,0,0,1,.872.111ZM62.979,69.18a.722.722,0,0,0-.417-.64,6.351,6.351,0,0,0-1.586-.5,7.234,7.234,0,0,1-1.93-.682,3.232,3.232,0,0,1-1.16-1.025,2.448,2.448,0,0,1-.4-1.382,2.774,2.774,0,0,1,1.141-2.278,4.7,4.7,0,0,1,2.987-.9,5.208,5.208,0,0,1,3.191.9,2.814,2.814,0,0,1,1.206,2.366H62.877q0-1.206-1.271-1.206a1.26,1.26,0,0,0-.826.274.847.847,0,0,0-.334.682.778.778,0,0,0,.408.677,3.857,3.857,0,0,0,1.3.427,11.264,11.264,0,0,1,1.573.4,2.857,2.857,0,0,1,2.264,2.792,2.629,2.629,0,0,1-1.22,2.236,5.35,5.35,0,0,1-3.159.863,5.46,5.46,0,0,1-2.3-.464,3.847,3.847,0,0,1-1.577-1.262,2.857,2.857,0,0,1-.566-1.679h2.922a1.208,1.208,0,0,0,.464,1.016,1.908,1.908,0,0,0,1.141.32,1.5,1.5,0,0,0,.96-.26A.831.831,0,0,0,62.979,69.18Zm9.333,3.006a5.16,5.16,0,0,1-3.739-1.378,4.757,4.757,0,0,1-1.429-3.586v-.26a6.165,6.165,0,0,1,.571-2.718,4.175,4.175,0,0,1,1.665-1.823,5.027,5.027,0,0,1,2.6-.645,4.345,4.345,0,0,1,3.34,1.313,5.159,5.159,0,0,1,1.225,3.66v1.215H70.326a2.253,2.253,0,0,0,.733,1.327,2.181,2.181,0,0,0,1.466.482,2.81,2.81,0,0,0,2.319-1.039l1.429,1.688a3.994,3.994,0,0,1-1.656,1.285A5.6,5.6,0,0,1,72.312,72.186Zm-.353-8q-1.373,0-1.633,1.818h3.154v-.241A1.549,1.549,0,0,0,73.1,64.6,1.514,1.514,0,0,0,71.959,64.188Zm11.912.6-1.03-.074a1.85,1.85,0,0,0-1.893.928V72H77.822V61.962h2.932l.1,1.29a2.421,2.421,0,0,1,2.2-1.475,3.049,3.049,0,0,1,.872.111Zm5.3,3.488,1.586-6.318h3.293L90.774,72H87.582L84.307,61.962h3.3ZM98.279,72H95.143V61.962h3.136ZM94.958,59.374a1.4,1.4,0,0,1,.482-1.095,2.051,2.051,0,0,1,2.5,0,1.483,1.483,0,0,1,0,2.189,2.051,2.051,0,0,1-2.5,0A1.4,1.4,0,0,1,94.958,59.374Zm9.491,10.4a1.391,1.391,0,0,0,1.021-.357,1.31,1.31,0,0,0,.353-1h2.932a3.47,3.47,0,0,1-1.183,2.709,4.4,4.4,0,0,1-3.048,1.058,4.455,4.455,0,0,1-3.451-1.373,5.41,5.41,0,0,1-1.262-3.8v-.13a6.114,6.114,0,0,1,.561-2.686A4.087,4.087,0,0,1,101.99,62.4a4.827,4.827,0,0,1,2.5-.626,4.344,4.344,0,0,1,3.108,1.085,3.85,3.85,0,0,1,1.15,2.941h-2.932a1.716,1.716,0,0,0-.38-1.2,1.313,1.313,0,0,0-1.021-.417q-1.215,0-1.419,1.549a10.932,10.932,0,0,0-.065,1.354,4.294,4.294,0,0,0,.362,2.1A1.253,1.253,0,0,0,104.448,69.773ZM113.373,72h-3.136V61.962h3.136Zm-3.321-12.626a1.4,1.4,0,0,1,.482-1.095,2.051,2.051,0,0,1,2.5,0,1.483,1.483,0,0,1,0,2.189,2.051,2.051,0,0,1-2.5,0A1.4,1.4,0,0,1,110.052,59.374Zm4.852,7.515a5.925,5.925,0,0,1,.584-2.677,4.18,4.18,0,0,1,1.679-1.8,5.057,5.057,0,0,1,2.57-.631,4.616,4.616,0,0,1,3.553,1.4,5.358,5.358,0,0,1,1.3,3.8v.111a5.2,5.2,0,0,1-1.3,3.725,4.628,4.628,0,0,1-3.53,1.378,4.681,4.681,0,0,1-3.442-1.285,5.026,5.026,0,0,1-1.4-3.484Zm3.126.195a3.735,3.735,0,0,0,.436,2.041,1.453,1.453,0,0,0,1.29.649q1.67,0,1.707-2.57v-.315q0-2.7-1.726-2.7-1.568,0-1.7,2.329Zm13.192,2.1a.722.722,0,0,0-.417-.64,6.351,6.351,0,0,0-1.586-.5,7.234,7.234,0,0,1-1.93-.682,3.232,3.232,0,0,1-1.16-1.025,2.448,2.448,0,0,1-.4-1.382,2.774,2.774,0,0,1,1.141-2.278,4.7,4.7,0,0,1,2.987-.9,5.208,5.208,0,0,1,3.191.9,2.814,2.814,0,0,1,1.206,2.366h-3.136q0-1.206-1.271-1.206a1.26,1.26,0,0,0-.826.274.847.847,0,0,0-.334.682.778.778,0,0,0,.408.677,3.857,3.857,0,0,0,1.3.427,11.263,11.263,0,0,1,1.573.4,2.857,2.857,0,0,1,2.264,2.792,2.629,2.629,0,0,1-1.22,2.236,5.35,5.35,0,0,1-3.159.863,5.46,5.46,0,0,1-2.3-.464,3.847,3.847,0,0,1-1.577-1.262,2.857,2.857,0,0,1-.566-1.679h2.922A1.208,1.208,0,0,0,128.8,69.8a1.908,1.908,0,0,0,1.141.32,1.5,1.5,0,0,0,.96-.26A.831.831,0,0,0,131.223,69.18Z" transform="translate(1085.914 600.23)" fill="#fff"/>
  </g>
</svg>
