<svg xmlns="http://www.w3.org/2000/svg" xmlns:xlink="http://www.w3.org/1999/xlink" width="38.786" height="43.787" viewBox="0 0 38.786 43.787">
  <defs>
    <radialGradient id="radial-gradient" cx="0.647" cy="0.272" r="0.453" gradientTransform="matrix(1.228, 0.066, -0.081, 0.998, -0.119, -0.041)" gradientUnits="objectBoundingBox">
      <stop offset="0" stop-color="#2478fe"/>
      <stop offset="0.994" stop-color="#804ad6"/>
    </radialGradient>
  </defs>
  <g id="Grupo_904052" data-name="Grupo 904052" transform="translate(-662.644 -129.498)">
    <path id="Trazado_632473" data-name="Trazado 632473" d="M697.676,149.347v0q-.075-.822-.219-1.617h0l2.867-4.245-1.7-3.178-1.7-3.179-4.2,1.757h0a12.027,12.027,0,0,0-1.108-.863h0l-.279-5.246-3.145-.6-3.144-.6-2.183,4.779h0a11.919,11.919,0,0,0-1.347.4h0l-3.262-3.173-2.747,2.333-2.747,2.334-4.018,7.181-.74,3.9-.74,3.9,2,1.219-.536.967c.05.548.991,2.445,1.086,2.975l.331.371-1.771,2.622,1.7,3.178,1.7,3.178,4.2-1.756h0a12.027,12.027,0,0,0,1.108.863h0l.279,5.246,3.145.6,3.144.6,2.183-4.778h0a11.714,11.714,0,0,0,1.347-.4h0l3.262,3.174,2.747-2.334,2.747-2.333-1.111-5h0q.425-.687.8-1.425v0l4.334-.758.74-3.9.74-3.9Zm-14.863,11.18c-3.606-.685-5.841-4.862-4.992-9.331s4.459-7.537,8.065-6.852,5.841,4.862,4.992,9.331S686.419,161.212,682.813,160.527Z" fill="#34146d" fill-rule="evenodd"/>
    <path id="Trazado_632474" data-name="Trazado 632474" d="M693.965,147.916v0c-.051-.568-.125-1.129-.223-1.679h0l2.959-4.412-1.746-3.3-1.746-3.3-4.326,1.831h0a12.154,12.154,0,0,0-1.139-.893h0l-.279-5.445-3.238-.615-3.237-.615-2.256,4.964h0a12.32,12.32,0,0,0-1.388.413h0L674,131.587l-2.833,2.427-2.833,2.427,1.136,5.19h0q-.44.714-.823,1.481v0l-4.465.794-.768,4.047L662.644,152l3.863,2.375v0q.076.854.223,1.68h0l-2.959,4.412,1.745,3.3,1.746,3.3,4.327-1.831h0a12.464,12.464,0,0,0,1.14.893h0l.279,5.445,3.237.615,3.238.614,2.256-4.964h0a12.041,12.041,0,0,0,1.387-.414h0l3.354,3.289,2.833-2.427,2.832-2.427L691,160.656h0q.438-.714.823-1.481v0l4.464-.794.769-4.047.768-4.047ZM678.579,159.87c-3.856-.732-6.239-5.232-5.324-10.052s4.782-8.134,8.638-7.4,6.239,5.232,5.324,10.052S682.434,160.6,678.579,159.87Z" fill-rule="evenodd" fill="url(#radial-gradient)"/>
    <path id="Trazado_632475" data-name="Trazado 632475" d="M693.209,135.235l3.714,1.9,3.4,6.356-3.623-1.659Z" fill="#664e98" fill-rule="evenodd"/>
    <path id="Trazado_632476" data-name="Trazado 632476" d="M693.742,146.24l3.715,1.492,2.867-4.245-3.623-1.659Z" fill="#3e207c" fill-rule="evenodd"/>
    <path id="Trazado_632477" data-name="Trazado 632477" d="M699.95,159.436l-3.66-1.051-4.464.791-.823,1.48,3.816.959.8-1.422Z" fill="#3e207c" fill-rule="evenodd"/>
    <path id="Trazado_632478" data-name="Trazado 632478" d="M693.742,146.24l.223,1.678,3.712,1.428-.219-1.615Z" fill="#3e207c" fill-rule="evenodd"/>
    <path id="Trazado_632479" data-name="Trazado 632479" d="M695.932,166.617l-3.791-.771L691,160.657l3.816.959Z" fill="#664e98" fill-rule="evenodd"/>
    <path id="Trazado_632480" data-name="Trazado 632480" d="M690.438,171.284l-3.963-.584,5.665-4.854,3.791.771Z" fill="#3e207c" fill-rule="evenodd"/>
    <path id="Trazado_632481" data-name="Trazado 632481" d="M683.648,173.285l-4.168-.5,2.256-4.964,3.6,1.761Z" fill="#3e207c" fill-rule="evenodd"/>
    <path id="Trazado_632482" data-name="Trazado 632482" d="M672.787,167.317l-1.011.423-4.514-.689,4.326-1.831,1.14.894Z" fill="#3e207c" fill-rule="evenodd"/>
    <path id="Trazado_632483" data-name="Trazado 632483" d="M674,131.587l5.312,1.615-.571,1.261-1.388.414Z" fill="#664e98" fill-rule="evenodd"/>
    <path id="Trazado_632484" data-name="Trazado 632484" d="M687.467,130.728l3.873,2.052.169,3.175-2.626,1.112-1.14-.893Z" fill="#3e207c" fill-rule="evenodd"/>
  </g>
</svg>
