<svg xmlns="http://www.w3.org/2000/svg" xmlns:xlink="http://www.w3.org/1999/xlink" width="107.625" height="97.038" viewBox="0 0 107.625 97.038">
  <defs>
    <clipPath id="clip-path">
      <path id="Trazado_632445" data-name="Trazado 632445" d="M414.546,210.726s-3.994-1.331-6.648.721-29.538,28.936-33.772,29.175c-3.946.231-7.069-3.269-7.473-3.748a.217.217,0,0,1-.045-.045s-2.713-4.446-1.085-8.349c1.038-2.479,15.171-9.974,26.11-15.6v-.008c6.334-3.257,11.609-5.9,12.639-6.554,2.815-1.815,2.893-6.018,2.893-6.018l3.081,5.637Z" fill="none" clip-rule="evenodd"/>
    </clipPath>
    <radialGradient id="radial-gradient" cx="0.504" cy="0.484" r="0.505" gradientTransform="matrix(0.966, 0.184, -0.181, 0.983, 0.171, -0.177)" gradientUnits="objectBoundingBox">
      <stop offset="0" stop-color="#c5c1d4"/>
      <stop offset="0.983" stop-color="#a592c2"/>
    </radialGradient>
    <linearGradient id="linear-gradient" x1="0.246" y1="0.63" x2="1.129" y2="0.63" gradientUnits="objectBoundingBox">
      <stop offset="0" stop-color="#fff"/>
      <stop offset="0.983" stop-color="#a563c2"/>
    </linearGradient>
    <radialGradient id="radial-gradient-2" cx="1.037" cy="0.418" r="0.469" gradientTransform="matrix(1.126, 0.184, -0.211, 0.983, -0.067, -0.182)" gradientUnits="objectBoundingBox">
      <stop offset="0" stop-color="#ffff9a"/>
      <stop offset="0.545" stop-color="#ee913e"/>
      <stop offset="0.998" stop-color="#e03347"/>
    </radialGradient>
    <linearGradient id="linear-gradient-2" x1="0.572" y1="0.965" x2="0.438" y2="-0.033" gradientUnits="objectBoundingBox">
      <stop offset="0" stop-color="#9a1743"/>
      <stop offset="1" stop-color="#c73e2c"/>
    </linearGradient>
    <linearGradient id="linear-gradient-3" x1="0.587" y1="0.985" x2="0.375" y2="-0.017" gradientUnits="objectBoundingBox">
      <stop offset="0" stop-color="#ff6e27"/>
      <stop offset="0.998" stop-color="#e03347"/>
    </linearGradient>
    <radialGradient id="radial-gradient-3" cx="0.566" cy="0.519" r="0.467" gradientTransform="matrix(1.143, 0.184, -0.239, 1.101, -3.209, 1.218)" gradientUnits="objectBoundingBox">
      <stop offset="0.816"/>
      <stop offset="1" stop-color="#fcfcfd"/>
    </radialGradient>
    <linearGradient id="linear-gradient-4" x1="0.64" y1="0.937" x2="0.428" y2="-0.064" xlink:href="#linear-gradient"/>
  </defs>
  <g id="Grupo_904049" data-name="Grupo 904049" transform="translate(-365.003 -143.595)">
    <g id="Grupo_903843" data-name="Grupo 903843">
      <g id="Grupo_903842" data-name="Grupo 903842">
        <g id="Grupo_903841" data-name="Grupo 903841" clip-path="url(#clip-path)">
          <rect id="Rectángulo_303019" data-name="Rectángulo 303019" width="50.651" height="40.552" transform="translate(363.895 200.301)" fill="#9a2143"/>
          <ellipse id="Elipse_6916" data-name="Elipse 6916" cx="22.743" cy="10.482" rx="22.743" ry="10.482" transform="matrix(0.875, -0.484, 0.484, 0.875, 358.377, 221.584)" fill="#9a2143"/>
          <ellipse id="Elipse_6917" data-name="Elipse 6917" cx="22.498" cy="10.369" rx="22.498" ry="10.369" transform="translate(358.646 221.564) rotate(-28.976)" fill="#9b2143"/>
          <path id="Trazado_632379" data-name="Trazado 632379" d="M402.819,208.955c2.744,4.955-3.748,13.8-14.5,19.753s-21.693,6.764-24.437,1.808,3.748-13.8,14.5-19.753S400.075,204,402.819,208.955Z" fill="#9c2242" fill-rule="evenodd"/>
          <ellipse id="Elipse_6918" data-name="Elipse 6918" cx="22.009" cy="10.143" rx="22.009" ry="10.143" transform="matrix(0.875, -0.484, 0.484, 0.875, 359.183, 221.524)" fill="#9d2242"/>
          <ellipse id="Elipse_6919" data-name="Elipse 6919" cx="21.765" cy="10.031" rx="21.765" ry="10.031" transform="translate(359.452 221.504) rotate(-28.977)" fill="#9e2342"/>
          <ellipse id="Elipse_6920" data-name="Elipse 6920" cx="21.52" cy="9.918" rx="21.52" ry="9.918" transform="translate(359.72 221.484) rotate(-28.976)" fill="#9f2342"/>
          <path id="Trazado_632380" data-name="Trazado 632380" d="M401.963,209.429c2.624,4.737-3.583,13.192-13.862,18.884s-20.739,6.467-23.362,1.729,3.583-13.192,13.862-18.884S399.34,204.691,401.963,209.429Z" fill="#a02441" fill-rule="evenodd"/>
          <path id="Trazado_632381" data-name="Trazado 632381" d="M401.749,209.547c2.594,4.683-3.541,13.041-13.7,18.668s-20.5,6.392-23.094,1.709,3.541-13.041,13.7-18.668S399.156,204.864,401.749,209.547Z" fill="#a12441" fill-rule="evenodd"/>
          <ellipse id="Elipse_6921" data-name="Elipse 6921" cx="20.786" cy="9.58" rx="20.786" ry="9.58" transform="matrix(0.875, -0.484, 0.484, 0.875, 360.526, 221.425)" fill="#a22541"/>
          <path id="Trazado_632382" data-name="Trazado 632382" d="M401.321,209.784c2.533,4.574-3.459,12.738-13.384,18.234s-20.024,6.243-22.556,1.669,3.459-12.737,13.384-18.234S398.788,205.21,401.321,209.784Z" fill="#a32541" fill-rule="evenodd"/>
          <path id="Trazado_632383" data-name="Trazado 632383" d="M401.108,209.9c2.5,4.52-3.419,12.586-13.225,18.017s-19.786,6.169-22.289,1.65,3.419-12.586,13.225-18.017S398.605,205.383,401.108,209.9Z" fill="#a42640" fill-rule="evenodd"/>
          <path id="Trazado_632384" data-name="Trazado 632384" d="M400.894,210.021c2.472,4.465-3.377,12.434-13.066,17.8s-19.547,6.095-22.02,1.63,3.377-12.434,13.066-17.8S398.421,205.556,400.894,210.021Z" fill="#a52640" fill-rule="evenodd"/>
          <ellipse id="Elipse_6922" data-name="Elipse 6922" cx="19.808" cy="9.129" rx="19.808" ry="9.129" transform="matrix(0.875, -0.484, 0.484, 0.875, 361.6, 221.345)" fill="#a62640"/>
          <ellipse id="Elipse_6923" data-name="Elipse 6923" cx="19.564" cy="9.016" rx="19.564" ry="9.016" transform="matrix(0.875, -0.484, 0.484, 0.875, 361.868, 221.325)" fill="#a72740"/>
          <ellipse id="Elipse_6924" data-name="Elipse 6924" cx="19.319" cy="8.904" rx="19.319" ry="8.904" transform="translate(362.137 221.306) rotate(-28.976)" fill="#a8273f"/>
          <path id="Trazado_632385" data-name="Trazado 632385" d="M400.038,210.495c2.352,4.247-3.212,11.828-12.428,16.931s-18.594,5.8-20.946,1.55,3.212-11.828,12.428-16.931S397.686,206.247,400.038,210.495Z" fill="#a9283f" fill-rule="evenodd"/>
          <ellipse id="Elipse_6925" data-name="Elipse 6925" cx="18.83" cy="8.678" rx="18.83" ry="8.678" transform="matrix(0.875, -0.484, 0.484, 0.875, 362.674, 221.266)" fill="#aa283f"/>
          <ellipse id="Elipse_6926" data-name="Elipse 6926" cx="18.586" cy="8.566" rx="18.586" ry="8.566" transform="matrix(0.875, -0.484, 0.484, 0.875, 362.942, 221.246)" fill="#ab293f"/>
          <ellipse id="Elipse_6927" data-name="Elipse 6927" cx="18.341" cy="8.453" rx="18.341" ry="8.453" transform="translate(363.211 221.226) rotate(-28.976)" fill="#ac293e"/>
          <path id="Trazado_632386" data-name="Trazado 632386" d="M399.182,210.969c2.232,4.029-3.047,11.221-11.791,16.063s-17.64,5.5-19.871,1.47,3.047-11.221,11.791-16.063S396.951,206.939,399.182,210.969Z" fill="#ad2a3e" fill-rule="evenodd"/>
          <ellipse id="Elipse_6928" data-name="Elipse 6928" cx="17.852" cy="8.227" rx="17.852" ry="8.227" transform="matrix(0.875, -0.484, 0.484, 0.875, 363.748, 221.186)" fill="#ae2a3e"/>
          <ellipse id="Elipse_6929" data-name="Elipse 6929" cx="17.607" cy="8.115" rx="17.607" ry="8.115" transform="translate(364.017 221.167) rotate(-28.977)" fill="#af2b3e"/>
          <path id="Trazado_632387" data-name="Trazado 632387" d="M398.54,211.324c2.141,3.866-2.924,10.766-11.312,15.412s-16.925,5.277-19.066,1.411,2.924-10.766,11.312-15.412S396.4,207.458,398.54,211.324Z" fill="#b02b3d" fill-rule="evenodd"/>
          <path id="Trazado_632388" data-name="Trazado 632388" d="M398.326,211.443c2.111,3.811-2.882,10.614-11.153,15.194s-16.687,5.2-18.8,1.391,2.882-10.614,11.153-15.194S396.216,207.631,398.326,211.443Z" fill="#b12c3d" fill-rule="evenodd"/>
          <path id="Trazado_632389" data-name="Trazado 632389" d="M398.112,211.561c2.081,3.757-2.841,10.463-10.994,14.978s-16.448,5.128-18.528,1.371,2.841-10.463,10.994-14.978S396.032,207.8,398.112,211.561Z" fill="#b22c3d" fill-rule="evenodd"/>
          <path id="Trazado_632390" data-name="Trazado 632390" d="M397.9,211.68c2.05,3.7-2.8,10.311-10.835,14.76s-16.21,5.054-18.261,1.351,2.8-10.311,10.835-14.76S395.848,207.977,397.9,211.68Z" fill="#b32c3d" fill-rule="evenodd"/>
          <ellipse id="Elipse_6930" data-name="Elipse 6930" cx="16.385" cy="7.551" rx="16.385" ry="7.551" transform="translate(365.359 221.067) rotate(-28.976)" fill="#b42d3c"/>
          <path id="Trazado_632391" data-name="Trazado 632391" d="M397.471,211.916c1.99,3.594-2.718,10.008-10.516,14.327s-15.733,4.9-17.724,1.312,2.718-10.008,10.516-14.327S395.48,208.323,397.471,211.916Z" fill="#b52d3c" fill-rule="evenodd"/>
          <path id="Trazado_632392" data-name="Trazado 632392" d="M397.257,212.035c1.96,3.539-2.677,9.856-10.357,14.109s-15.495,4.832-17.455,1.292,2.677-9.856,10.357-14.109S395.3,208.5,397.257,212.035Z" fill="#b62e3c" fill-rule="evenodd"/>
          <path id="Trazado_632393" data-name="Trazado 632393" d="M397.043,212.153c1.93,3.485-2.636,9.705-10.2,13.893s-15.256,4.757-17.186,1.272,2.636-9.7,10.2-13.893S395.113,208.668,397.043,212.153Z" fill="#b72e3c" fill-rule="evenodd"/>
          <path id="Trazado_632394" data-name="Trazado 632394" d="M396.829,212.272c1.9,3.43-2.6,9.553-10.038,13.675s-15.018,4.683-16.918,1.252,2.6-9.553,10.038-13.675S394.929,208.841,396.829,212.272Z" fill="#b82f3b" fill-rule="evenodd"/>
          <path id="Trazado_632395" data-name="Trazado 632395" d="M396.615,212.39c1.869,3.376-2.553,9.4-9.879,13.459s-14.779,4.608-16.649,1.232,2.553-9.4,9.879-13.459S394.745,209.014,396.615,212.39Z" fill="#b92f3b" fill-rule="evenodd"/>
          <ellipse id="Elipse_6931" data-name="Elipse 6931" cx="14.917" cy="6.875" rx="14.917" ry="6.875" transform="translate(366.97 220.948) rotate(-28.976)" fill="#ba303b"/>
          <path id="Trazado_632396" data-name="Trazado 632396" d="M396.187,212.627c1.809,3.268-2.471,9.1-9.56,13.024s-14.3,4.46-16.112,1.193,2.471-9.1,9.56-13.024S394.378,209.36,396.187,212.627Z" fill="#bb303b" fill-rule="evenodd"/>
          <path id="Trazado_632397" data-name="Trazado 632397" d="M395.973,212.746c1.779,3.213-2.43,8.946-9.4,12.807s-14.064,4.385-15.843,1.172,2.43-8.946,9.4-12.807S394.194,209.533,395.973,212.746Z" fill="#bc313a" fill-rule="evenodd"/>
          <ellipse id="Elipse_6932" data-name="Elipse 6932" cx="14.184" cy="6.537" rx="14.184" ry="6.537" transform="matrix(0.875, -0.484, 0.484, 0.875, 367.776, 220.888)" fill="#bd313a"/>
          <path id="Trazado_632398" data-name="Trazado 632398" d="M395.545,212.983c1.719,3.1-2.347,8.643-9.082,12.372s-13.587,4.237-15.306,1.133,2.347-8.643,9.082-12.373S393.826,209.879,395.545,212.983Z" fill="#be313a" fill-rule="evenodd"/>
          <ellipse id="Elipse_6933" data-name="Elipse 6933" cx="13.695" cy="6.311" rx="13.695" ry="6.311" transform="matrix(0.875, -0.484, 0.484, 0.875, 368.313, 220.848)" fill="#bf323a"/>
          <path id="Trazado_632399" data-name="Trazado 632399" d="M395.117,213.22c1.659,2.995-2.265,8.34-8.763,11.938s-13.111,4.088-14.769,1.093,2.265-8.34,8.763-11.938S393.459,210.225,395.117,213.22Z" fill="#c03239" fill-rule="evenodd"/>
          <ellipse id="Elipse_6934" data-name="Elipse 6934" cx="13.206" cy="6.086" rx="13.206" ry="6.086" transform="matrix(0.875, -0.484, 0.484, 0.875, 368.85, 220.809)" fill="#c13339"/>
          <ellipse id="Elipse_6935" data-name="Elipse 6935" cx="12.961" cy="5.973" rx="12.961" ry="5.973" transform="translate(369.119 220.789) rotate(-28.977)" fill="#c23339"/>
          <path id="Trazado_632400" data-name="Trazado 632400" d="M394.476,213.575c1.568,2.832-2.142,7.885-8.286,11.287s-12.4,3.866-13.964,1.034,2.142-7.885,8.286-11.287S392.908,210.744,394.476,213.575Z" fill="#c33439" fill-rule="evenodd"/>
          <ellipse id="Elipse_6936" data-name="Elipse 6936" cx="12.472" cy="5.748" rx="12.472" ry="5.748" transform="translate(369.656 220.749) rotate(-28.976)" fill="#c43438"/>
          <path id="Trazado_632401" data-name="Trazado 632401" d="M394.048,213.812c1.507,2.723-2.059,7.582-7.967,10.853s-11.919,3.717-13.427.994,2.059-7.582,7.967-10.853S392.54,211.089,394.048,213.812Z" fill="#c53538" fill-rule="evenodd"/>
          <path id="Trazado_632402" data-name="Trazado 632402" d="M393.834,213.93c1.477,2.669-2.018,7.431-7.808,10.637s-11.68,3.642-13.158.974,2.018-7.431,7.808-10.637S392.356,211.262,393.834,213.93Z" fill="#c63538" fill-rule="evenodd"/>
          <path id="Trazado_632403" data-name="Trazado 632403" d="M393.62,214.049c1.447,2.614-1.977,7.278-7.648,10.419s-11.442,3.568-12.89.954,1.977-7.278,7.648-10.419S392.172,211.435,393.62,214.049Z" fill="#c73638" fill-rule="evenodd"/>
          <ellipse id="Elipse_6937" data-name="Elipse 6937" cx="11.494" cy="5.297" rx="11.494" ry="5.297" transform="translate(370.73 220.67) rotate(-28.976)" fill="#c93637"/>
          <path id="Trazado_632404" data-name="Trazado 632404" d="M393.192,214.286c1.387,2.505-1.894,6.975-7.329,9.985s-10.966,3.419-12.353.914,1.894-6.975,7.329-9.985S391.8,211.781,393.192,214.286Z" fill="#ca3637" fill-rule="evenodd"/>
          <path id="Trazado_632405" data-name="Trazado 632405" d="M392.978,214.4c1.357,2.451-1.853,6.824-7.17,9.768s-10.727,3.345-12.084.9,1.853-6.824,7.17-9.768S391.621,211.954,392.978,214.4Z" fill="#cb3737" fill-rule="evenodd"/>
          <ellipse id="Elipse_6938" data-name="Elipse 6938" cx="10.76" cy="4.959" rx="10.76" ry="4.959" transform="matrix(0.875, -0.484, 0.484, 0.875, 371.536, 220.61)" fill="#cc3737"/>
          <ellipse id="Elipse_6939" data-name="Elipse 6939" cx="10.515" cy="4.846" rx="10.515" ry="4.846" transform="translate(371.804 220.59) rotate(-28.976)" fill="#cd3836"/>
          <path id="Trazado_632406" data-name="Trazado 632406" d="M392.336,214.76c1.267,2.287-1.729,6.369-6.692,9.117s-10.012,3.121-11.278.834,1.729-6.368,6.692-9.117S391.07,212.473,392.336,214.76Z" fill="#ce3836" fill-rule="evenodd"/>
          <path id="Trazado_632407" data-name="Trazado 632407" d="M392.122,214.878c1.237,2.233-1.688,6.217-6.532,8.9s-9.774,3.047-11.01.815,1.688-6.217,6.532-8.9S390.886,212.646,392.122,214.878Z" fill="#cf3936" fill-rule="evenodd"/>
          <path id="Trazado_632408" data-name="Trazado 632408" d="M391.908,215c1.207,2.178-1.647,6.065-6.373,8.682s-9.535,2.974-10.741.795,1.647-6.065,6.373-8.682S390.7,212.818,391.908,215Z" fill="#d03936" fill-rule="evenodd"/>
          <path id="Trazado_632409" data-name="Trazado 632409" d="M391.694,215.115c1.176,2.124-1.606,5.914-6.214,8.466s-9.3,2.9-10.472.775,1.606-5.914,6.214-8.466S390.518,212.992,391.694,215.115Z" fill="#d13a35" fill-rule="evenodd"/>
          <path id="Trazado_632410" data-name="Trazado 632410" d="M391.48,215.234c1.146,2.069-1.564,5.762-6.054,8.248s-9.059,2.825-10.2.755,1.565-5.762,6.055-8.248S390.335,213.164,391.48,215.234Z" fill="#d23a35" fill-rule="evenodd"/>
          <ellipse id="Elipse_6940" data-name="Elipse 6940" cx="9.048" cy="4.17" rx="9.048" ry="4.17" transform="translate(373.415 220.471) rotate(-28.977)" fill="#d33b35"/>
          <ellipse id="Elipse_6941" data-name="Elipse 6941" cx="8.804" cy="4.057" rx="8.804" ry="4.057" transform="translate(373.684 220.451) rotate(-28.976)" fill="#d43b35"/>
          <ellipse id="Elipse_6942" data-name="Elipse 6942" cx="8.559" cy="3.945" rx="8.559" ry="3.945" transform="matrix(0.875, -0.484, 0.484, 0.875, 373.952, 220.431)" fill="#d53b34"/>
          <path id="Trazado_632411" data-name="Trazado 632411" d="M390.625,215.708c1.025,1.851-1.4,5.155-5.418,7.38s-8.105,2.527-9.13.676,1.4-5.156,5.418-7.381S389.6,213.856,390.625,215.708Z" fill="#d63c34" fill-rule="evenodd"/>
          <path id="Trazado_632412" data-name="Trazado 632412" d="M390.411,215.826c.995,1.8-1.359,5-5.258,7.163s-7.867,2.453-8.862.656,1.359-5,5.258-7.163S389.416,214.029,390.411,215.826Z" fill="#d73c34" fill-rule="evenodd"/>
          <path id="Trazado_632413" data-name="Trazado 632413" d="M390.2,215.944c.965,1.743-1.318,4.853-5.1,6.947s-7.628,2.378-8.593.636,1.318-4.853,5.1-6.947S389.232,214.2,390.2,215.944Z" fill="#d83d34" fill-rule="evenodd"/>
          <path id="Trazado_632414" data-name="Trazado 632414" d="M389.983,216.063c.935,1.688-1.277,4.7-4.939,6.729s-7.39,2.3-8.325.616,1.277-4.7,4.939-6.729S389.048,214.375,389.983,216.063Z" fill="#d93d33" fill-rule="evenodd"/>
          <path id="Trazado_632415" data-name="Trazado 632415" d="M389.769,216.181c.9,1.634-1.235,4.549-4.78,6.512s-7.151,2.23-8.056.6,1.235-4.55,4.78-6.512S388.864,214.548,389.769,216.181Z" fill="#da3e33" fill-rule="evenodd"/>
          <path id="Trazado_632416" data-name="Trazado 632416" d="M389.555,216.3c.875,1.579-1.194,4.4-4.621,6.295s-6.913,2.155-7.787.576,1.194-4.4,4.621-6.295S388.681,214.721,389.555,216.3Z" fill="#db3e33" fill-rule="evenodd"/>
          <path id="Trazado_632417" data-name="Trazado 632417" d="M389.341,216.418c.844,1.525-1.153,4.246-4.461,6.078s-6.675,2.081-7.519.557,1.153-4.246,4.461-6.078S388.5,214.894,389.341,216.418Z" fill="#dc3f33" fill-rule="evenodd"/>
          <path id="Trazado_632418" data-name="Trazado 632418" d="M389.127,216.537c.814,1.47-1.112,4.094-4.3,5.861s-6.436,2.006-7.25.536,1.112-4.094,4.3-5.861S388.313,215.067,389.127,216.537Z" fill="#dd3f32" fill-rule="evenodd"/>
          <path id="Trazado_632419" data-name="Trazado 632419" d="M388.913,216.655c.784,1.416-1.07,3.943-4.142,5.644s-6.2,1.932-6.982.517,1.07-3.943,4.142-5.644S388.129,215.239,388.913,216.655Z" fill="#de4032" fill-rule="evenodd"/>
          <path id="Trazado_632420" data-name="Trazado 632420" d="M388.7,216.774c.754,1.361-1.029,3.791-3.983,5.426s-5.96,1.859-6.713.5,1.029-3.791,3.983-5.426S387.945,215.412,388.7,216.774Z" fill="#df4032" fill-rule="evenodd"/>
          <path id="Trazado_632421" data-name="Trazado 632421" d="M388.485,216.892c.724,1.307-.988,3.639-3.824,5.21s-5.721,1.784-6.444.477.988-3.639,3.824-5.21S387.762,215.585,388.485,216.892Z" fill="#e04132" fill-rule="evenodd"/>
          <path id="Trazado_632422" data-name="Trazado 632422" d="M388.271,217.011c.694,1.252-.947,3.487-3.664,4.992s-5.483,1.71-6.177.457.948-3.487,3.665-4.992S387.578,215.758,388.271,217.011Z" fill="#e14131" fill-rule="evenodd"/>
          <path id="Trazado_632423" data-name="Trazado 632423" d="M388.058,217.129c.663,1.2-.906,3.336-3.506,4.776s-5.244,1.635-5.908.437.906-3.336,3.506-4.776S387.394,215.931,388.058,217.129Z" fill="#e24131" fill-rule="evenodd"/>
          <path id="Trazado_632424" data-name="Trazado 632424" d="M387.844,217.248c.633,1.143-.865,3.184-3.346,4.558s-5.006,1.561-5.64.417.865-3.184,3.346-4.558S387.21,216.1,387.844,217.248Z" fill="#e34231" fill-rule="evenodd"/>
          <path id="Trazado_632425" data-name="Trazado 632425" d="M387.63,217.366c.6,1.089-.824,3.033-3.187,4.341s-4.768,1.487-5.371.4.824-3.033,3.187-4.341S387.027,216.277,387.63,217.366Z" fill="#e44231" fill-rule="evenodd"/>
          <path id="Trazado_632426" data-name="Trazado 632426" d="M387.416,217.485c.573,1.034-.783,2.881-3.028,4.124s-4.529,1.412-5.1.377.783-2.881,3.028-4.124S386.843,216.45,387.416,217.485Z" fill="#e54330" fill-rule="evenodd"/>
          <path id="Trazado_632427" data-name="Trazado 632427" d="M387.2,217.6c.543.98-.741,2.73-2.868,3.907s-4.291,1.338-4.834.358.741-2.729,2.868-3.907S386.659,216.623,387.2,217.6Z" fill="#e64330" fill-rule="evenodd"/>
          <path id="Trazado_632428" data-name="Trazado 632428" d="M386.988,217.721c.512.926-.7,2.578-2.709,3.691s-4.052,1.263-4.565.337.7-2.577,2.709-3.69S386.475,216.8,386.988,217.721Z" fill="#e74430" fill-rule="evenodd"/>
          <path id="Trazado_632429" data-name="Trazado 632429" d="M386.774,217.84c.482.871-.659,2.426-2.549,3.473s-3.814,1.189-4.3.318.659-2.426,2.549-3.473S386.291,216.969,386.774,217.84Z" fill="#e84430" fill-rule="evenodd"/>
          <path id="Trazado_632430" data-name="Trazado 632430" d="M386.56,217.958c.452.817-.618,2.275-2.39,3.256s-3.576,1.115-4.028.3.618-2.275,2.39-3.256S386.108,217.142,386.56,217.958Z" fill="#e9452f" fill-rule="evenodd"/>
          <path id="Trazado_632431" data-name="Trazado 632431" d="M386.346,218.077c.422.762-.576,2.123-2.231,3.039s-3.337,1.04-3.759.278.576-2.123,2.231-3.039S385.924,217.315,386.346,218.077Z" fill="#ea452f" fill-rule="evenodd"/>
          <path id="Trazado_632432" data-name="Trazado 632432" d="M386.132,218.2c.392.708-.535,1.972-2.071,2.822s-3.1.967-3.491.259.535-1.972,2.071-2.822S385.74,217.487,386.132,218.2Z" fill="#eb462f" fill-rule="evenodd"/>
          <path id="Trazado_632433" data-name="Trazado 632433" d="M385.918,218.314c.362.653-.494,1.819-1.912,2.605s-2.86.892-3.222.238.494-1.82,1.912-2.6S385.556,217.66,385.918,218.314Z" fill="#ec462f" fill-rule="evenodd"/>
          <path id="Trazado_632434" data-name="Trazado 632434" d="M385.7,218.432c.332.6-.453,1.668-1.752,2.388s-2.623.818-2.954.219.453-1.668,1.752-2.388S385.373,217.833,385.7,218.432Z" fill="#ed462e" fill-rule="evenodd"/>
          <path id="Trazado_632435" data-name="Trazado 632435" d="M385.49,218.551c.3.544-.411,1.516-1.593,2.17s-2.384.744-2.685.2.411-1.516,1.593-2.171S385.189,218.006,385.49,218.551Z" fill="#ee472e" fill-rule="evenodd"/>
          <path id="Trazado_632436" data-name="Trazado 632436" d="M385.276,218.669c.272.49-.37,1.365-1.434,1.954s-2.145.669-2.416.179.37-1.365,1.434-1.954S385.005,218.179,385.276,218.669Z" fill="#ef472e" fill-rule="evenodd"/>
          <path id="Trazado_632437" data-name="Trazado 632437" d="M385.062,218.788c.242.435-.329,1.213-1.274,1.736s-1.907.6-2.148.159.329-1.213,1.274-1.736S384.821,218.352,385.062,218.788Z" fill="#f0482e" fill-rule="evenodd"/>
          <path id="Trazado_632438" data-name="Trazado 632438" d="M384.849,218.906c.211.381-.289,1.062-1.116,1.52s-1.668.52-1.88.139.289-1.062,1.116-1.52S384.637,218.525,384.849,218.906Z" fill="#f1482d" fill-rule="evenodd"/>
          <path id="Trazado_632439" data-name="Trazado 632439" d="M384.635,219.025c.181.326-.248.909-.956,1.3s-1.431.446-1.612.119.247-.909.956-1.3S384.454,218.7,384.635,219.025Z" fill="#f2492d" fill-rule="evenodd"/>
          <path id="Trazado_632440" data-name="Trazado 632440" d="M384.421,219.143c.15.272-.206.758-.8,1.085s-1.192.372-1.343.1.206-.758.8-1.085S384.27,218.871,384.421,219.143Z" fill="#f3492d" fill-rule="evenodd"/>
          <path id="Trazado_632441" data-name="Trazado 632441" d="M384.207,219.262c.12.217-.165.606-.638.868s-.953.3-1.074.079.165-.606.638-.868S384.086,219.044,384.207,219.262Z" fill="#f44a2d" fill-rule="evenodd"/>
          <path id="Trazado_632442" data-name="Trazado 632442" d="M383.993,219.38c.09.163-.124.455-.478.651s-.715.223-.806.06.124-.455.478-.651S383.9,219.217,383.993,219.38Z" fill="#f54a2c" fill-rule="evenodd"/>
          <path id="Trazado_632443" data-name="Trazado 632443" d="M383.779,219.5c.06.109-.083.3-.319.434s-.477.148-.537.039.082-.3.319-.434S383.719,219.39,383.779,219.5Z" fill="#f64b2c" fill-rule="evenodd"/>
          <path id="Trazado_632444" data-name="Trazado 632444" d="M383.565,219.617c.03.055-.041.152-.159.217s-.239.074-.269.02.041-.152.159-.217S383.535,219.563,383.565,219.617Z" fill="#f74b2c" fill-rule="evenodd"/>
        </g>
      </g>
    </g>
    <path id="Trazado_632446" data-name="Trazado 632446" d="M396.176,210.553s-4.267,6.472,4.086,8.034l7.373-7.174s-4.705.043-2.907-5.16Z" fill-rule="evenodd" fill="url(#radial-gradient)"/>
    <path id="Trazado_632447" data-name="Trazado 632447" d="M414.546,210.726s-3.994-1.331-6.648.721-29.538,28.936-33.772,29.175c-3.946.231-7.069-3.269-7.473-3.748.488.513,2.962,3.525,14.588-5.533,12.341-9.615,22.237-22.988,21.582-23.7s-11.19,5.242-11.19,5.242v-.008c6.334-3.257,11.609-5.9,12.639-6.554,2.815-1.815,2.893-6.018,2.893-6.018l3.081,5.637Z" fill-rule="evenodd" fill="url(#linear-gradient)" style="mix-blend-mode: multiply;isolation: isolate"/>
    <path id="Trazado_632448" data-name="Trazado 632448" d="M451.182,145.956c-.585-.181-1.176-.336-1.758-.481-13.711-3.3-28.3,4.324-36.263,18.122-.015.034-.038.056-.053.089a45.136,45.136,0,0,0-5.4,15.56c-2.563,17.007,5.228,33.107,19.221,38.5.568.223,1.149.43,1.742.613,16.948,5.279,35.733-6.657,41.949-26.65S468.139,151.227,451.182,145.956Zm-41,26.621c4.987-16.06,19.325-26.136,33.092-23.955l.33.061c.688.156,1.372.338,2.042.544,14.737,4.578,22.3,22.383,16.885,39.763-4.987,16.06-19.316,26.138-33.092,23.956a1.141,1.141,0,0,1-.165-.031c-.733-.155-1.469-.347-2.2-.573C412.339,207.756,404.776,189.958,410.18,172.577Z" fill-rule="evenodd" fill="url(#radial-gradient-2)"/>
    <path id="Trazado_632449" data-name="Trazado 632449" d="M449.424,145.475c-.593-.237-1.192-.439-1.811-.635-16.949-5.27-35.734,6.666-41.959,26.657s2.487,40.471,19.435,45.749c.611.186,1.217.354,1.836.5,16.458,3.913,34.13-7.872,40.123-27.153S465.179,151.607,449.424,145.475Zm-20.152,67.44c-.733-.155-1.469-.347-2.2-.573-14.735-4.586-22.3-22.384-16.894-39.765,4.987-16.06,19.325-26.136,33.092-23.955l.33.061c.688.156,1.372.338,2.042.544,14.737,4.578,22.3,22.383,16.885,39.763-4.987,16.06-19.316,26.138-33.092,23.956A1.141,1.141,0,0,1,429.272,212.915Z" fill-rule="evenodd" fill="url(#linear-gradient-2)"/>
    <path id="Trazado_632450" data-name="Trazado 632450" d="M427.074,212.342c.729.226,1.465.418,2.2.573a22.986,22.986,0,0,1-3.2-.761c-12.8-3.983-20.18-17.923-18.364-32.908a38.136,38.136,0,0,1,1.471-6.857,38.524,38.524,0,0,1,3.933-8.7c.015-.033.038-.055.053-.089,6.868-11.1,18.762-17.278,30.111-14.975-13.767-2.181-28.105,7.9-33.092,23.955C404.776,189.958,412.339,207.756,427.074,212.342Z" fill-rule="evenodd" fill="url(#linear-gradient-3)"/>
    <path id="Trazado_632451" data-name="Trazado 632451" d="M462.529,188.99c-4.987,16.06-19.316,26.138-33.092,23.956a1.141,1.141,0,0,1-.165-.031c-.733-.155-1.469-.347-2.2-.573-14.735-4.586-22.3-22.384-16.894-39.765,4.987-16.06,19.325-26.136,33.092-23.955l.33.061c.688.156,1.372.338,2.042.544C460.381,153.8,467.942,171.61,462.529,188.99Z" fill-rule="evenodd" opacity="0.75" fill="url(#radial-gradient-3)" style="mix-blend-mode: screen;isolation: isolate"/>
    <path id="Trazado_632452" data-name="Trazado 632452" d="M463.543,189.18c-5.122,16.447-20.025,26.624-34.106,23.766,13.776,2.182,28.1-7.9,33.092-23.956,5.413-17.38-2.148-35.185-16.885-39.763-.67-.206-1.354-.388-2.042-.544a23.405,23.405,0,0,1,3.048.732C461.387,153.993,468.948,171.8,463.543,189.18Z" fill-rule="evenodd" fill="url(#linear-gradient-4)" style="mix-blend-mode: multiply;isolation: isolate"/>
    <path id="Trazado_632453" data-name="Trazado 632453" d="M375.986,239.141s11.958-15.159,20.627-18.184C396.613,220.957,383.214,235.336,375.986,239.141Z" fill="#ffd8c9" fill-rule="evenodd" opacity="0.39"/>
    <path id="Trazado_632454" data-name="Trazado 632454" d="M409.475,187.889s1.882,10.137,7.145,15.433l2.674-1.787a39.185,39.185,0,0,1-6.183-15.412Z" fill="#fff" fill-rule="evenodd"/>
    <path id="Trazado_632455" data-name="Trazado 632455" d="M417.706,204.167l2.173-1.3,2.506,2.328-1.893,2.112A9.547,9.547,0,0,1,417.706,204.167Z" fill="#fff" fill-rule="evenodd"/>
    <path id="Trazado_632456" data-name="Trazado 632456" d="M437.674,149.8s-4.344,27.832,22.852,41.777c3.594-10.524,2.8-16.963,2.8-16.963s-.306-14.4-12.281-21.723C451.042,152.892,444.024,148.659,437.674,149.8Z" fill="#fff" fill-rule="evenodd" style="mix-blend-mode: soft-light;isolation: isolate"/>
  </g>
</svg>
